<svg width="23" height="27" viewBox="0 0 23 27" fill="none" xmlns="http://www.w3.org/2000/svg">
<path d="M22.6275 2.81546C22.6909 2.88314 22.8357 3.05988 22.8742 3.13508C23.0511 3.47727 23.0169 4.80519 22.8368 5.16081C22.5928 5.64159 21.6979 6.15729 21.1946 6.32758C18.7784 7.14249 16.0059 6.052 13.5892 5.69799C14.1663 6.15353 14.8437 6.51237 15.45 6.94319C16.769 7.87843 17.8 8.80615 18.5528 10.2625C20.0963 13.2508 17.8906 14.7614 16.7793 17.2104C16.3763 18.0995 17.0272 18.9208 17.6286 19.5574C18.1759 20.1359 19.0398 20.5157 18.8907 21.4509C18.8619 21.6298 18.658 22.319 18.4557 22.289C18.2534 22.2589 17.1053 21.5321 16.8965 21.3569C14.8892 19.6782 15.9229 17.8266 16.3823 15.7971C17.3537 11.5055 15.3215 8.82334 12.0956 6.34315C11.9285 6.21477 11.614 5.91663 11.4041 5.97357C11.2381 6.01816 10.212 7.251 10.0406 7.47447C8.46128 9.53564 7.64125 11.2176 8.01005 13.8815C8.34522 16.301 9.19996 18.7484 9.55954 21.1566C9.8958 23.409 8.28827 24.7503 6.7019 26.0836C6.24361 26.4688 5.53964 27.1569 4.91377 26.9668C4.7977 26.8309 5.44256 26.1239 5.55211 25.9655C6.04294 25.2553 6.57282 24.4968 6.64603 23.611C6.95626 19.8453 5.08135 16.547 5.86017 12.7872C6.39384 10.2093 8.11472 8.08417 9.57581 5.96605C8.3143 6.22282 7.0989 6.79117 5.80539 6.93137C4.03028 7.12422 2.72864 6.89216 1.331 5.77804C-0.0666376 4.66391 -0.482078 3.33062 0.659028 1.7803C1.34944 0.842378 2.77853 -0.343726 4.03408 0.0935422C4.80204 0.36106 6.45187 1.88183 7.19544 2.44158C7.75514 2.86273 9.88604 4.56024 10.4154 4.62362C10.75 4.66391 10.9794 4.53445 11.2826 4.51296C11.7729 4.47858 12.4183 4.62201 12.8446 4.5554C13.618 4.43454 15.2922 3.61748 16.1513 3.31826C16.8406 3.07814 17.569 2.82943 18.2664 2.61992C19.6955 2.19179 21.4251 1.52353 22.628 2.81438L22.6275 2.81546ZM8.49111 4.99965C7.12059 4.69238 5.95074 4.01177 4.78523 3.27099C3.65768 2.55385 2.23998 1.04866 1.00776 2.61025C0.365073 3.42463 0.726821 3.93603 1.41181 4.51726C3.01012 5.87312 6.00606 5.53362 7.9672 5.20593C8.10279 5.18337 8.29207 5.15651 8.41572 5.113C8.49274 5.08614 8.50684 5.12912 8.49111 5.00019V4.99965ZM22.2516 4.39317C22.5407 4.05421 22.2842 3.43376 21.8481 3.3462C21.206 3.21674 20.1386 3.55248 19.5014 3.73673C17.8293 4.22074 16.2261 4.96527 14.5117 5.29403C14.5757 5.39448 14.6679 5.35903 14.7553 5.37515C16.6763 5.727 18.9178 5.83229 20.7618 5.14631C21.052 5.03833 22.0846 4.58871 22.2516 4.39263V4.39317Z" fill="#5A6B2B"/>
</svg>
