<svg width="44" height="44" viewBox="0 0 44 44" fill="none" xmlns="http://www.w3.org/2000/svg">
<path d="M44 23.5C44 29.8513 39.0751 35 33 35C26.9249 35 22 29.8513 22 23.5C22 17.1487 26.9249 12 33 12C39.0751 12 44 17.1487 44 23.5Z" fill="#98A6B7"/>
<path d="M22 23.5C22 29.8513 17.0751 35 11 35C4.92487 35 0 29.8513 0 23.5C0 17.1487 4.92487 12 11 12C17.0751 12 22 17.1487 22 23.5Z" fill="#E2EFF6"/>
<path d="M32 33C32 39.0751 27.0751 44 21 44C14.9249 44 10 39.0751 10 33C10 26.9249 14.9249 22 21 22C27.0751 22 32 26.9249 32 33Z" fill="#D4E7FD"/>
<path d="M32 11C32 17.0751 27.0751 22 21 22C14.9249 22 10 17.0751 10 11C10 4.92487 14.9249 0 21 0C27.0751 0 32 4.92487 32 11Z" fill="#C8D2DA"/>
</svg>
