<svg width="65" height="74" viewBox="0 0 65 74" fill="none" xmlns="http://www.w3.org/2000/svg">
<mask id="mask0_397_1706" style="mask-type:luminance" maskUnits="userSpaceOnUse" x="0" y="-1" width="65" height="75">
<path d="M-9.15527e-05 -0.00012207H64.0971V73.4483H-9.15527e-05V-0.00012207Z" fill="white"/>
</mask>
<g mask="url(#mask0_397_1706)">
<path d="M17.8682 42.0583C17.9101 41.9956 17.931 41.9398 17.931 41.8631L18.2796 31.739C18.3005 31.2928 18.1262 31.1951 17.7567 31.4671C16.8574 32.1295 15.9022 32.6524 14.8704 33.0638C14.3476 33.259 14.0338 32.8685 14.5428 32.5757C20.9288 28.8942 26.4155 24.2993 31.0307 18.8329C31.1852 18.6468 31.3204 18.4601 31.4372 18.2694L32.7087 17.7902C32.7184 17.814 32.7307 17.8367 32.7457 17.8567C37.1239 23.8182 43.5448 28.8733 49.8959 32.5966C50.3979 32.8895 50.363 33.0638 49.7774 33.0847C49.5055 33.0986 49.1918 33.001 48.8014 32.7918C48.0206 32.3596 47.2467 31.8715 46.5077 31.3695C46.2149 31.1533 46.0755 31.23 46.0964 31.5995C46.3334 34.8906 46.431 38.1816 46.3683 41.4935C46.3683 41.5493 46.3892 41.6121 46.431 41.6679C49.7983 47.1761 55.8706 52.2591 61.0436 55.8221C61.9638 56.4426 63.0305 56.9865 64.0414 57.5931C64.4945 57.865 64.2784 58.2136 63.7695 57.9835C61.9429 57.1259 60.2488 56.0731 58.6732 54.811C58.3037 54.5182 58.1294 54.5949 58.1434 55.083C58.2061 56.8749 58.241 58.6599 58.2619 60.4727C58.3037 64.1891 58.5547 67.6196 58.8266 71.1825C58.8475 71.4335 58.8266 72.1517 58.3595 71.6288C58.3177 71.573 58.2828 71.5102 58.2828 71.4544C57.7181 65.7091 57.502 59.9498 57.6414 54.1835C57.6414 54.0859 57.5996 53.9743 57.502 53.9116C53.5142 50.8786 49.9726 47.3714 46.8981 43.418C46.5635 43.0136 46.4101 43.0693 46.431 43.5923C46.5426 48.229 46.6193 52.8587 46.6402 57.4955C46.6611 62.2228 46.9121 67.3476 46.8981 72.2702C46.8981 72.4445 46.7587 72.6049 46.5635 72.6049C46.5426 72.6049 46.5217 72.6049 46.4868 72.6049L46.3683 72.584C46.2149 72.5421 46.1173 72.4097 46.1173 72.2493C46.1731 69.3139 46.0964 64.719 45.9221 58.4716C45.8036 54.6925 45.943 48.8147 45.8036 43.7875C45.6851 39.5064 45.6293 35.2253 45.6502 30.9372C45.6502 30.8256 45.5875 30.728 45.5108 30.6652C41.0001 27.6113 36.9705 24.0274 33.422 19.9206C33.1919 19.6487 32.9967 19.3767 32.8433 19.1257C32.7457 18.9305 32.6272 18.7353 32.5505 18.54C32.4738 18.3866 32.2786 18.303 32.1183 18.3866C32.0625 18.4006 32.0207 18.4424 32.0067 18.4773C30.8773 20.06 29.6085 21.5591 28.2072 22.9397C25.3488 25.7845 22.2534 28.3504 18.921 30.6513C18.8234 30.7071 18.7885 30.8047 18.7885 30.9232C18.6282 40.6568 18.67 50.3905 18.419 60.0823C18.3214 63.3942 18.2796 67.3825 18.2796 72.075C18.2796 72.6188 18.1053 72.7792 17.7358 72.6049C17.6382 72.5422 17.5615 72.4445 17.5615 72.333C17.443 67.6753 17.7706 62.7527 17.7567 58.4507C17.7567 53.5211 17.8334 48.6195 18.0286 43.6899C18.0495 42.9299 17.8543 42.8741 17.4221 43.4947C16.704 44.5684 15.8046 45.6561 14.738 46.7857C12.3397 49.3376 9.73235 51.7292 6.92975 53.9883C6.85306 54.051 6.8182 54.1487 6.8182 54.2463C6.95067 59.9707 6.73455 65.6742 6.19076 71.3777C6.19076 71.4335 6.1559 71.5102 6.11407 71.5521C5.45177 72.333 5.52845 71.301 5.57028 71.0082C6.03738 66.3506 6.26744 61.6999 6.23259 57.0074C6.23259 56.3101 6.26745 55.6268 6.36505 54.9435C6.42779 54.5182 6.28836 54.4206 5.93978 54.6925C4.26659 56.0312 2.43304 57.1608 0.487959 58.0812C0.41127 58.116 0.313667 58.116 0.216065 58.0812C-5.63115e-05 57.9835 0.0417749 57.8441 0.334583 57.6907C7.20164 53.6397 13.0648 48.4242 17.8682 42.0583Z" fill="#5A6B2B"/>
<path d="M31.7115 35.5041C31.8306 35.6573 32.0688 35.6991 32.223 35.5598C32.265 35.525 32.3001 35.4832 32.3211 35.4483C33.1059 33.9091 35.4743 31.2833 37.4503 31.8475C39.7346 32.5092 37.6254 37.0015 36.7986 38.4224C35.3552 40.9088 33.8486 43.0122 32.265 44.7395C31.0668 46.0629 30.1279 44.9972 29.4832 43.8828C27.9767 41.3546 25.4962 36.4792 27.3531 33.6793C28.3901 32.0982 30.5974 33.1708 31.4032 34.4942C31.5363 34.7449 31.6134 35.3857 31.7115 35.5041ZM31.3822 37.1199C31.2841 37.0572 31.242 36.9597 31.228 36.8622C31.1439 35.525 30.5413 34.5151 29.4622 33.8325C28.9367 33.4982 28.4672 33.5957 28.0538 34.1459C27.4512 34.9608 27.255 35.8523 27.4862 36.904C28.1169 39.6691 29.252 42.2113 30.8917 44.5306C30.9898 44.6838 31.207 44.7047 31.3611 44.6072C31.3822 44.5863 31.4032 44.5654 31.4242 44.5654C33.6875 42.0371 35.5724 39.2373 37.0158 36.1866C37.3872 35.3857 37.5834 34.3966 37.6044 33.1917C37.6044 33.1151 37.5834 33.0315 37.5273 32.9758C36.0418 31.1092 32.7906 36.1657 32.1459 37.0433C31.9707 37.294 31.7115 37.3149 31.3822 37.1199Z" fill="#5A6B2B"/>
<path d="M11.0159 63.2942C10.8446 63.2942 10.7075 63.1752 10.687 63.0001C10.4608 60.9487 10.31 56.2157 11.7972 54.6124C12.832 53.4991 13.9971 54.2413 14.3466 55.4945C14.9359 57.721 15.0525 60.1855 14.7098 62.8811C14.6892 63.0351 14.5522 63.1542 14.4014 63.1752L11.0159 63.2942ZM13.2364 54.9624C12.2426 53.7512 11.3997 57.469 11.338 57.9941C11.2078 59.3804 11.1872 60.8087 11.2421 62.237C11.2421 62.412 11.3997 62.552 11.5916 62.552L13.7915 62.412C13.9422 62.412 14.0793 62.279 14.093 62.0969C14.2095 60.1855 14.1341 58.2671 13.8463 56.3697C13.7503 55.8026 13.5585 55.3335 13.2364 54.9624Z" fill="#5A6B2B"/>
<path d="M50.16 63.1967C49.9803 63.1967 49.8489 63.0574 49.8489 62.9042C49.7729 61.8525 49.1922 52.7357 52.3029 54.2331C52.8421 54.4839 53.2085 54.9087 53.3813 55.4937C54.1348 57.9453 54.3076 60.4735 53.8998 63.0226C53.879 63.1758 53.727 63.2942 53.5749 63.2942L50.16 63.1967ZM52.6486 62.5351C52.7661 62.5559 52.8974 62.5699 53.0149 62.5908C53.1878 62.6117 53.3398 62.4793 53.3606 62.2843C53.4366 60.6058 53.3398 58.9552 53.091 57.3255C52.9389 56.3295 52.5725 55.4729 51.9711 54.7764C51.8536 54.6371 51.6462 54.6232 51.508 54.7346C51.4872 54.7555 51.4527 54.7973 51.4319 54.8321C50.7752 56.0231 50.4434 57.2837 50.4296 58.6279C50.4296 59.7701 50.4296 60.961 50.4434 62.1241C50.4434 62.2983 50.6024 62.4375 50.7752 62.4375C51.2176 62.4375 51.6601 62.4584 52.0886 62.4584C52.2407 62.4584 52.4343 62.4933 52.6486 62.5351Z" fill="#5A6B2B"/>
</g>
<mask id="mask1_397_1706" style="mask-type:luminance" maskUnits="userSpaceOnUse" x="24" y="54" width="14" height="20">
<path d="M24.5959 54.4692H37.0891V73.4484H24.5959V54.4692Z" fill="white"/>
</mask>
<g mask="url(#mask1_397_1706)">
<path d="M31.2608 56.519C31.2608 56.3447 31.1283 56.1913 30.9331 56.1913C30.8774 56.1913 30.8355 56.2122 30.7937 56.2262C26.3597 58.311 25.6556 64.9348 26.0879 69.3345C26.1436 69.976 26.1994 70.9242 26.2203 72.1932C26.2203 72.4233 26.1645 72.5628 26.0112 72.6046C25.9136 72.6186 25.795 72.5628 25.7741 72.4652C24.6238 68.8046 25.077 64.7745 26.1855 60.8071C27.8935 54.7131 35.0394 52.2937 36.4059 60.3748C36.9497 63.6101 37.1449 66.8383 36.9845 70.1294C36.9845 70.3246 36.7754 73.6156 36.0364 72.5419C35.9946 72.4861 35.9736 72.4094 35.9736 72.3327C36.2246 68.5536 36.4407 62.3829 35.1161 58.6596C34.6699 57.4185 33.7915 56.519 32.4739 55.9752C32.3135 55.8985 32.1183 55.9752 32.0416 56.1495C32.0207 56.1913 32.0207 56.2262 32.0207 56.2889V64.2864C32.0207 64.4607 32.1811 64.6211 32.3554 64.6211C32.3763 64.6211 32.3763 64.6211 32.3902 64.6211L32.9549 64.5444C33.0177 64.5444 33.0734 64.5444 33.1153 64.5583C33.5057 64.7187 33.5824 64.9697 33.3662 65.3183C33.3105 65.402 33.2268 65.4578 33.1292 65.4787L32.4878 65.5554C32.3135 65.5763 32.195 65.7297 32.195 65.8831C32.2787 67.8912 32.2926 69.9132 32.2787 71.9213C32.2787 72.2699 32.1183 72.6046 31.7279 72.3675C31.6303 72.3118 31.5745 72.2141 31.5536 72.0956L31.3236 65.9598C31.3236 65.8064 31.205 65.6739 31.0307 65.653L30.6194 65.5903C30.4451 65.5763 30.3266 65.4159 30.3266 65.2416C30.3475 65.0882 30.4242 64.9488 30.5636 64.8372C30.6194 64.7954 30.6822 64.7536 30.7589 64.7536C31.0307 64.7396 31.1841 64.6211 31.205 64.3282C31.2469 61.6229 31.2817 59.0291 31.2608 56.519Z" fill="#5A6B2B"/>
</g>
</svg>
