<svg width="54" height="25" viewBox="0 0 54 25" fill="none" xmlns="http://www.w3.org/2000/svg">
<g clip-path="url(#clip0_397_278)">
<path d="M33.2486 19.9189C33.2063 19.9017 33.1711 19.8247 33.148 19.8176C33.1933 19.8379 33.2265 19.9108 33.2486 19.9189Z" fill="#F0EFEF"/>
<path d="M47.4289 1.37796C47.448 1.99498 47.4199 3.15506 47.8302 3.63024C48.2406 4.10541 49.0231 3.8734 49.543 4.16317C49.54 4.2503 48.4719 4.33338 48.2768 4.40835C47.1604 4.84199 47.6502 6.86934 47.2791 7.76093C47.1071 7.00207 47.2298 5.32426 46.7742 4.72244C46.401 4.23003 45.0181 4.25739 45.0151 4.16317C46.0681 3.76904 46.6957 4.24928 46.9974 2.91697C47.0316 2.76702 47.1282 1.03247 47.4289 1.37695V1.37796Z" fill="#5A6B2B"/>
<path d="M6.89753 1.27764C7.02527 1.84704 6.97799 2.58767 7.12282 3.12668C7.3622 4.01827 7.94051 3.8977 8.65863 4.01117C8.80849 4.03448 8.96941 4.01827 9.00964 4.21381C7.5191 4.30702 7.23044 4.43265 7.01118 5.89972C6.91966 6.51067 6.93776 7.15302 6.84724 7.76193C6.69437 7.76599 6.59882 5.29588 6.38258 4.88554C6.05269 4.26143 5.14147 4.36477 4.58327 4.16416C4.57824 4.02131 5.96217 4.01725 6.2981 3.63427C6.63402 3.2513 6.63201 1.96964 6.69537 1.42759C6.71348 1.27359 6.73661 1.16619 6.89653 1.27865L6.89753 1.27764Z" fill="#5A6B2B"/>
<path d="M44.1098 0.060791C44.0877 0.579534 44.0716 1.50355 44.6851 1.65957C44.9285 1.72138 45.3107 1.57852 45.4173 1.88348C43.9972 1.98581 44.2275 2.66464 44.0978 3.74671C44.0807 3.89362 44.0455 4.36069 43.9097 4.41742C43.9157 3.89767 43.8745 2.29888 43.3807 2.0618C43.1503 1.95137 42.8094 2.01013 42.6012 1.83485C43.2791 1.4924 43.5909 1.75988 43.784 0.898683C43.8534 0.589666 43.6613 0.0567383 44.1088 0.0618042L44.1098 0.060791Z" fill="#5A6B2B"/>
<path d="M10.2146 0.0607871C10.4429 0.281658 10.0868 1.38905 10.815 1.63525C11.0544 1.71631 11.4225 1.59473 11.5241 1.88247C10.1391 1.94022 10.5374 2.59473 10.2276 3.46504C10.1764 3.60891 10.2558 3.63627 10.0154 3.60486C9.99129 3.09422 10.0003 2.31914 9.48338 2.06383L8.60736 1.78318C10.0406 1.65045 9.83942 1.41945 10.0174 0.212763C10.0376 0.0749715 10.0557 -0.0932148 10.2146 0.0597739V0.0607871Z" fill="#5A6B2B"/>
<path d="M50.5468 5.12665C50.5357 5.53192 50.5156 6.11044 50.9199 6.32118C51.1623 6.44782 51.6209 6.33232 51.5535 6.64539C51.3021 6.6231 50.8938 6.66667 50.7409 6.8926C50.6483 7.02938 50.6846 7.17832 50.6373 7.27457C50.59 7.37082 50.4653 7.3617 50.4502 7.42756C50.407 7.61094 50.5568 8.01925 50.3476 8.06484C50.2028 7.61297 50.3858 6.88247 49.8498 6.692C49.6195 6.60993 49.2654 6.77102 49.3409 6.4458C49.5682 6.43972 49.9302 6.41236 50.0942 6.24114C50.3889 5.93414 50.062 5.13374 50.5478 5.12867L50.5468 5.12665Z" fill="#5A6B2B"/>
<path d="M3.77863 4.92405C3.80578 5.36174 3.78164 6.16011 4.22217 6.35262C4.44646 6.45089 4.85983 6.33641 4.7854 6.64644C3.94156 6.57349 3.96771 6.98382 3.78164 7.61199C3.7384 7.75788 3.844 7.79031 3.57949 7.76092C3.54529 7.33033 3.53624 6.8592 3.08062 6.69203C2.8493 6.60692 2.49728 6.77106 2.57271 6.44482C3.31396 6.42759 3.4427 6.25637 3.56742 5.57146C3.61167 5.3283 3.43868 4.83995 3.77963 4.92405H3.77863Z" fill="#5A6B2B"/>
<path d="M14.1592 6.11958L14.9427 6.49344L14.2296 6.78929L13.9389 8.06487C13.774 7.60084 14.0063 6.97064 13.5275 6.70519C13.3495 6.60692 12.9895 6.65555 12.9321 6.44481C13.8755 6.43164 13.7971 6.00104 13.9389 5.229L14.1592 6.11958Z" fill="#5A6B2B"/>
<path d="M40.992 6.64539L40.4368 6.74468L40.1391 7.65856C39.8675 7.44377 40.0727 6.96758 39.8384 6.74468C39.6533 6.56839 39.2711 6.68491 39.082 6.49443C39.2027 6.31611 39.8997 6.21074 39.9701 6.12361C40.0496 6.02634 39.9198 5.31409 40.1874 5.22797C40.2759 5.47923 40.2346 5.93415 40.3382 6.13982C40.4821 6.42452 41.0282 6.24215 40.992 6.64539Z" fill="#5A6B2B"/>
<path d="M50.4975 8.1662C50.5629 8.19963 50.5629 8.23408 50.4975 8.26752V8.1662Z" fill="#5A6B2B"/>
<path d="M20.2743 19.919C19.9645 20.001 20.0842 19.8693 19.7714 20.1216C18.5212 20.5725 17.3002 21.2898 15.8881 21.3273C14.8844 21.3536 12.8346 20.9575 11.9566 20.4458C11.7243 20.31 11.5925 20.0699 11.4165 19.9767C11.149 19.8349 10.7517 19.8693 10.4781 19.7052C10.291 19.5927 10.2649 19.3799 10.1392 19.3121C9.90182 19.1844 9.31244 19.1864 9.0781 19.0142C8.93226 18.9078 8.96545 18.6616 8.80654 18.5532C8.67478 18.464 8.36601 18.458 8.17592 18.3779C7.42663 18.0598 7.83799 17.7214 7.80379 17.69C7.69617 17.5927 6.54759 17.6049 6.08795 17.0324C5.8687 16.7589 6.14528 16.5654 5.38995 16.6768C5.47343 16.8987 5.87071 17.0547 5.79226 17.3323C5.747 17.4904 5.33765 17.534 5.29038 17.4863C5.25719 17.4529 5.3628 16.922 5.13348 16.5795C4.60646 16.152 3.65903 15.6383 3.22253 15.1621C3.10988 15.0395 3.09882 14.8683 3.01735 14.7609C2.82525 14.5096 2.43803 14.5492 2.59392 14.0142C2.62309 13.9129 2.80916 13.7822 2.77597 13.7386C2.72568 13.6748 1.84161 13.538 1.71589 13.3344C1.47853 12.9494 2.11216 12.6495 1.97035 12.5218C1.13556 12.5258 0.544172 11.8217 1.66862 11.6079C1.68069 11.4063 1.29146 11.4965 1.26028 11.3455C1.11042 10.6272 3.13402 10.0436 3.67814 9.93416C4.79253 9.70822 5.68263 9.89465 6.64112 9.77712C7.1601 9.71329 7.82994 9.38806 8.38412 9.30498C9.411 9.15098 10.3222 9.40326 11.2666 9.37185C11.5483 9.36273 11.8359 9.17225 12.1769 9.17529C14.6903 9.1915 18.1913 12.0284 19.7724 13.8926C20.4915 14.7406 20.9421 15.771 21.6854 16.5745C21.7517 15.8024 21.28 15.1155 20.8637 14.5157C18.8109 11.5613 15.6005 9.9453 15.8489 5.77915C16.0631 2.19455 19.6356 -0.263402 23.021 0.994955C24.593 1.57955 25.7939 2.61704 25.987 4.3911C26.0725 5.18036 25.7285 5.75686 25.7044 6.2908C25.6803 6.82474 26.3028 8.33132 26.0675 8.6758C25.9699 8.81866 25.7386 8.80549 25.6099 8.72241C24.9984 7.94632 24.412 6.95848 23.7512 6.23811C23.192 5.63021 22.1148 5.24825 21.5828 4.44581C21.5003 4.32119 21.5154 4.09728 21.3927 3.95341C20.925 3.40326 19.4546 3.85311 19.0281 4.31917C18.7264 4.64845 18.4488 5.9291 18.4689 6.38705C18.6238 9.9605 26.2234 13.8551 26.3209 18.4448C26.3592 20.2432 25.5385 22.7335 23.7703 23.4833C21.6824 24.3688 17.082 24.4711 14.7999 24.2725C10.1704 23.8693 7.11484 22.4904 3.04551 20.5106C1.86474 19.9362 1.08226 19.0355 0.488855 17.919C0.387273 17.7275 -0.173945 17.1246 0.0644218 16.8774C0.276638 16.6576 0.363134 17.154 0.467734 17.0274C0.376209 16.6961 0.0996236 16.4387 0.164998 16.0669L1.22105 16.5725L1.27134 16.2695C1.80037 16.4326 1.7008 16.2472 1.79333 16.1976C1.92207 16.1287 4.41939 17.1044 4.48778 17.233C4.55014 17.3516 4.46163 17.4184 4.33993 17.382C4.00401 17.2807 3.59466 16.9453 3.18129 16.9787C3.34322 17.2655 3.80587 17.2766 4.08547 17.384C4.11363 17.5421 3.94165 17.4965 3.83504 17.4853C3.28388 17.4276 2.81217 17.079 2.2761 16.9787L3.23158 17.6869C3.37037 17.8389 3.12396 17.8004 3.03747 17.7812C2.21475 17.6049 1.35482 16.9696 0.614576 16.5745C1.05007 17.6251 2.12423 17.8075 2.97813 18.3455C2.06791 18.4286 1.33672 17.6322 0.463711 17.4853C0.891161 17.8663 1.32666 18.5127 1.87178 18.7001C1.90196 18.7102 1.94219 18.69 1.97236 18.7001V19.0041C1.91905 18.9879 1.52982 18.9423 1.57106 19.1044C1.69477 19.1834 3.00327 19.7234 2.87755 19.8136L2.47524 19.8156C3.3392 20.611 4.5783 20.69 5.69369 20.8278C5.83752 21.233 5.15661 20.8632 5.24009 21.1317C7.89531 22.7801 11.1439 23.6535 14.1924 23.8875C16.5137 24.0659 22.3542 24.2026 24.237 22.8399C24.3798 22.7366 24.4442 22.6089 24.5015 22.4488C24.5277 22.4286 24.6655 22.2867 24.7027 22.2462C26.0755 21.0223 26.2696 18.6484 25.7054 16.9777L25.5143 17.074C25.3604 16.7224 25.2347 16.2928 25.0587 15.9595C24.2219 14.3698 22.1561 11.7396 20.7339 10.5897C20.5549 10.4448 20.0057 10.2158 19.9836 10.1793C19.9635 10.1469 20.1445 9.92099 20.0349 9.77914C19.9866 9.71633 19.2625 9.38401 19.1921 9.25331C19.1327 9.1449 19.2122 8.94632 19.1539 8.88451C19.1197 8.84804 18.9628 8.90073 18.8964 8.845C18.8561 8.81157 18.4951 8.16314 18.3643 7.98685C18.0898 7.61501 18.4619 7.66567 18.473 7.59475C18.4991 7.42454 18.2889 7.05574 18.2648 6.79536C18.0998 5.00205 18.8441 3.13376 20.926 3.40529C21.3484 3.46101 21.3233 3.83994 21.6844 3.29891C21.5697 3.82778 21.5798 4.41035 22.0867 4.71734C22.0927 4.65048 22.0826 4.58158 22.0867 4.51471C22.0897 4.48229 22.0897 4.44581 22.0867 4.41339H22.1872C22.1792 4.614 22.2858 4.72545 22.489 4.71734C22.5292 4.77611 22.5544 4.85514 22.5896 4.91998C22.4498 5.08411 22.499 5.13984 22.6901 5.22393C22.7304 5.34044 23.4776 5.65047 23.7452 5.42555C24.2762 4.97874 24.071 4.39313 23.7965 3.90681C23.8206 3.97266 24.1767 4.16213 24.2994 4.10843C24.3336 3.91086 24.065 4.06081 24.0057 4.00306C23.9564 3.95544 24.0218 3.62211 23.9976 3.50154C23.8256 3.53092 23.7472 3.77307 23.7975 3.90681C23.7522 3.82677 23.5742 3.75787 23.5893 3.55524C23.5923 3.51167 23.9765 3.48735 23.7975 3.29992C23.7472 3.24723 23.4082 3.43568 23.4957 3.09728C23.7401 3.16618 24.1123 3.14794 24.3285 3.21988C24.6121 3.31512 24.7047 3.93619 24.9984 4.16922C25.1784 4.31208 25.3816 4.29384 25.4067 4.31208C25.451 4.3445 25.4379 4.7062 25.7074 4.61603C25.7356 4.34551 25.7316 4.23001 25.6079 4.00812C25.5616 3.92505 25.4952 3.90681 25.4067 3.90681C25.4137 3.84602 25.3916 3.71937 25.4067 3.70417C25.4188 3.691 25.6119 3.74065 25.6149 3.64642C25.6189 3.48026 25.3956 3.20063 25.4057 2.99597H25.3081C25.3031 3.07702 25.2568 3.14085 25.2055 3.19759C24.9551 2.95139 24.6644 2.20772 24.4995 2.03447C23.5983 1.08918 21.1996 0.733557 19.9756 1.06993C19.6155 1.16922 19.4023 1.36882 19.171 1.4752C18.7727 1.6596 18.4619 1.64744 18.0706 2.03852C17.96 2.14997 17.96 2.34349 17.8625 2.4367C17.602 2.68999 17.3988 2.36679 17.2137 3.05169C17.1705 3.21177 17.4471 3.34754 16.9563 3.29891L17.0578 3.60184C16.8456 3.54815 16.569 3.6059 16.554 3.85818C16.5519 3.88452 17.0367 3.94531 16.556 4.21076L16.4554 4.00914C16.0511 5.62616 15.9163 7.40529 16.7732 8.90478C16.8547 9.04764 17.7488 10.3263 17.8142 10.3891C17.9741 10.5431 18.2849 10.534 18.3452 10.616C18.4237 10.7244 18.5474 11.3455 18.7214 11.6039C19.3188 12.4863 20.4241 13.5137 21.1221 14.4539C21.3545 14.766 21.6119 15.3951 21.7779 15.5927C22.0495 15.9159 22.2164 15.6353 22.3884 16.4721C21.9871 16.2057 22.0303 17.1976 22.0867 17.2827C22.0273 17.6343 21.5657 18.0061 21.2288 18C20.7218 17.9909 19.0855 15.9838 18.5675 15.5076C14.8331 12.078 9.50756 9.55726 4.34697 10.1013C3.91047 10.1469 1.72997 10.8257 1.56905 11.154C1.47752 11.3404 1.71187 11.305 1.79132 11.3313C2.20972 11.4691 2.64823 11.5238 3.07669 11.6089V11.8116C2.73372 11.7781 2.54464 11.6799 2.13228 11.7214C2.01561 11.7336 1.26631 11.8642 1.36789 12.0638C1.51675 12.3546 3.2879 12.5583 3.68015 12.6221L3.57957 12.8247C2.97511 12.7872 2.40484 12.5137 1.87178 13.078C1.87178 13.46 4.51292 13.765 4.68592 13.9402C4.74023 13.9949 4.76034 14.154 4.56019 14.1186C4.31781 14.076 2.65125 13.6099 2.77597 14.1905C2.85743 14.5684 4.59841 14.8045 4.96954 14.925C5.13851 14.9797 5.23506 14.8805 5.1888 15.155L3.27885 14.8531C3.87326 15.5795 4.88807 15.8095 5.79326 15.8663C5.8164 16.0436 5.56495 15.9615 5.44326 15.9666C5.19182 15.9767 4.93836 15.9585 4.68793 15.9676C4.76135 16.1165 5.14253 16.2675 5.2934 16.3192C6.06381 16.5806 6.81713 16.54 7.60364 16.6768C7.62074 16.8257 7.23855 16.8592 7.15205 16.8582C6.86541 16.8541 6.51943 16.7021 6.19658 16.7781C6.50233 17.2411 7.44574 17.4418 7.96773 17.4762C8.14474 17.4884 8.30768 17.3769 8.46458 17.382C8.64763 17.387 9.45023 17.4002 9.51661 17.4347C9.56287 17.458 9.64334 17.5654 9.61517 17.5876L8.1548 17.69C8.04316 17.6981 7.82189 17.6332 7.90638 17.8409C8.10954 18.3414 9.15956 18.4286 9.61517 18.2979C9.64434 18.3962 9.73084 18.3931 9.81633 18.3992C9.88271 18.4043 9.9511 18.3962 10.0175 18.3992L9.71575 18.6018C9.54879 18.6069 9.37982 18.5968 9.21287 18.6018C9.06301 18.7082 10.1593 19.1074 10.2689 19.1074H12.2302C12.2382 19.1733 12.0964 19.31 12.0793 19.31H10.4198C10.9217 19.848 11.7927 19.6089 12.4303 19.8176C12.4917 20.0132 11.501 19.8176 11.8279 20.1196C11.8731 20.1611 12.9231 20.5258 12.9845 20.5258H14.644L13.941 20.9301C15.2163 21.0456 16.209 21.1135 17.4601 20.7791C17.601 20.7416 19.1297 20.2401 18.9688 20.1216C18.1773 20.1611 17.3817 20.1064 16.6545 19.766C17.8484 19.7265 18.9658 20.1145 20.1747 19.7143L19.176 19.2523C18.3784 18.383 19.355 19.1003 19.7925 19.2391C20.1586 19.3546 20.5941 19.4174 20.9783 19.4124L20.4754 19.8176M24.2963 3.40529C24.1555 3.33234 24.0278 3.46912 24.0962 3.50458C24.237 3.57753 24.3647 3.44075 24.2963 3.40529ZM25.2025 5.53193C24.9068 5.22494 24.4532 5.45189 24.1233 5.61096C24.0218 5.65959 23.9584 5.57854 24.0107 5.768C24.241 6.60792 25.2548 7.37388 25.7567 8.06385L25.5053 6.44379C25.5053 6.11248 25.4409 5.77813 25.2035 5.53193C25.2981 5.62109 25.3162 6.26648 25.3041 6.44379C25.2498 7.26344 24.9481 6.32423 24.9259 5.95848C24.9179 5.8217 25.0024 5.34247 25.2035 5.53193H25.2025ZM11.1892 9.61906C10.6431 9.31309 9.4985 9.56435 8.85984 9.4833L7.60264 9.88654C9.17968 9.90883 10.6109 10.6647 12.1276 10.8997C12.1829 10.5927 11.7746 10.6454 11.673 10.3911C11.6177 10.2523 11.7534 10.074 11.685 9.98583C11.6227 9.90579 11.4316 9.90072 11.333 9.8217C11.2636 9.76597 11.2324 9.64135 11.1902 9.61805L11.1892 9.61906ZM18.8662 13.536C18.9437 13.5461 19.008 13.6859 19.0653 13.5877C18.838 13.0618 18.3422 12.923 18.0073 12.6241C16.3659 11.1601 14.5143 9.58461 12.1809 9.47925C11.9455 9.46911 11.2053 9.56739 11.6971 9.76496C11.9556 9.8683 12.3177 9.81157 12.5289 10.0416C12.2915 10.1601 11.6549 10.1115 12.0532 10.4245C12.3197 10.6353 12.6818 10.7143 12.9302 10.9534C12.7059 10.9483 12.4343 10.7842 12.3287 11.1034C13.0227 11.3972 13.7539 11.7254 14.4076 12.1003C15.0614 12.4752 15.9223 13.233 16.4594 13.4782C16.6716 13.5755 17.605 13.6495 16.9553 13.8409C16.9251 13.8794 17.5688 14.4185 17.6663 14.4914C18.1159 14.8257 18.5786 15.1216 19.0191 15.5603C19.4596 15.999 20.6816 17.5532 21.0809 17.7417C21.3957 17.8906 21.6924 17.6555 21.7759 17.3496C20.8667 16.2989 20.4553 14.9331 19.4687 13.8926C19.3932 13.8136 19.2685 13.6272 19.1689 13.7893C19.5823 14.076 19.9806 14.6545 20.0249 15.155C19.536 14.7396 19.1941 14.0871 18.7666 13.6373C18.7455 13.5795 18.833 13.5309 18.8672 13.536H18.8662ZM22.1842 16.0689C22.1732 16.0578 21.9388 15.999 21.8855 16.0162C22.0122 16.4752 22.3291 16.2128 22.1842 16.0689ZM1.41617 16.5755V16.6768C1.48155 16.6434 1.48155 16.6089 1.41617 16.5755ZM3.07568 16.9797C3.02238 16.7781 2.86146 16.7518 2.67338 16.7791C2.72668 16.9808 2.88761 17.0071 3.07568 16.9797ZM2.37064 19.7173C2.22984 19.6444 2.1021 19.7812 2.1705 19.8166C2.3113 19.8896 2.43903 19.7528 2.37064 19.7173Z" fill="#5A6B2B"/>
<path d="M20.4753 19.8177C20.5136 19.8126 20.9843 19.7538 20.8284 19.919C20.4814 20.0274 19.894 20.5441 19.6184 20.6262C19.2151 20.7457 19.6446 20.2229 19.7713 20.1206C20.0046 20.0365 20.0177 20.0618 20.2742 19.918C20.3597 19.8957 20.4572 19.8197 20.4753 19.8166V19.8177Z" fill="#5A6B2B"/>
<path d="M14.7415 18.9058C14.7797 19.1317 14.5917 19.1884 14.4237 19.2431C13.8152 19.4427 12.5117 19.306 12.1265 18.7031C13.0217 18.9402 13.7981 19.1672 14.7405 18.9047L14.7415 18.9058Z" fill="#5A6B2B"/>
<path d="M7.60159 10.4975C7.67903 10.8035 7.35719 10.7103 7.15 10.6981C6.56867 10.6626 5.95716 10.4306 5.34968 10.4853L4.58429 10.2959C5.57095 10.0578 6.60487 10.4316 7.60159 10.4975Z" fill="#5A6B2B"/>
<path d="M18.3622 18.8044C18.5262 18.9301 18.3602 18.9868 18.2144 19.0061C17.6622 19.079 17.0095 18.9473 16.5187 18.6869C16.405 18.6271 15.9977 18.384 16.051 18.1965C16.8134 18.4822 17.5023 18.9392 18.3632 18.8044H18.3622Z" fill="#5A6B2B"/>
<path d="M10.0154 14.9555C10.0546 15.2148 9.97215 15.1692 9.76395 15.1581C9.17458 15.1267 8.40919 14.7336 8.20502 14.1449C8.57614 14.0983 8.69382 14.4539 8.98449 14.6252C9.25303 14.7832 9.70059 14.9119 10.0154 14.9555Z" fill="#5A6B2B"/>
<path d="M15.8498 15.2584C16.0077 15.7741 15.2816 15.5319 14.9466 15.4073C14.6117 15.2827 14.2617 15.0628 14.2406 14.6505C14.5966 14.7345 14.7908 15.077 15.1619 15.1895C15.3932 15.2594 15.6115 15.2715 15.8498 15.2584Z" fill="#5A6B2B"/>
<path d="M15.8488 17.0831C15.9876 17.228 15.8378 17.2695 15.698 17.2867C15.0925 17.3607 14.2456 17.0233 13.9379 16.4752C14.316 16.4569 14.5202 16.8105 14.8602 16.9129C15.0794 16.9787 15.7623 16.9929 15.8488 17.0831Z" fill="#5A6B2B"/>
<path d="M10.9196 23.1601C10.8441 23.226 9.28319 22.7457 9.04382 22.6647C8.88792 22.612 8.75617 22.7538 8.80847 22.4519C9.38678 22.5522 10.115 22.6758 10.6631 22.8622C10.828 22.918 10.9558 22.9362 10.9196 23.1601Z" fill="#5A6B2B"/>
<path d="M17.9599 17.386C18.1269 17.5137 17.9499 17.5694 17.8121 17.5877C17.2318 17.6636 16.2149 17.5735 16.05 16.8795C16.3628 16.9595 16.4583 17.1692 16.8093 17.2786C17.1956 17.3992 17.5606 17.4023 17.9599 17.386Z" fill="#5A6B2B"/>
<path d="M11.9253 16.9807C12.2743 17.2472 11.0905 17.1905 10.9789 17.1742C10.6681 17.1276 10.1129 16.9351 9.91479 16.6778C10.6148 16.7011 11.1921 17.1185 11.9253 16.9807Z" fill="#5A6B2B"/>
<path d="M22.3863 16.4742C22.4185 16.6302 22.3451 16.847 22.3883 17.0112C22.4094 17.0932 22.5784 17.078 22.5915 17.149C22.6398 17.4134 22.3813 18.152 22.2898 17.6343C22.1902 17.0659 22.1439 17.3739 22.0856 17.2847C22.0273 17.1956 21.986 16.2077 22.3873 16.4742H22.3863Z" fill="#5A6B2B"/>
<path d="M9.1102 12.3212C9.15043 12.5623 9.07098 12.5542 8.86379 12.5188C8.3418 12.4286 7.70314 11.9028 7.50098 11.4094C7.61463 11.2949 8.13461 11.9068 8.2724 11.999C8.50372 12.154 8.82758 12.304 9.1102 12.3212Z" fill="#5A6B2B"/>
<path d="M24.6996 22.2492C24.6624 22.2897 24.5246 22.4316 24.4984 22.4519C24.3677 22.5532 23.9523 22.8348 23.7954 22.7062C24.2943 22.3282 24.7016 21.9493 25.0013 21.387C25.1995 21.2411 25.0758 21.7072 25.0576 21.7477C24.9923 21.8976 24.8132 22.1246 24.7006 22.2492H24.6996Z" fill="#5A6B2B"/>
<path d="M11.7252 14.3455C11.0292 14.4539 10.4841 14.0942 10.116 13.537L11.7252 14.3455Z" fill="#5A6B2B"/>
<path d="M10.114 11.308C10.1401 11.3313 10.3091 11.7619 10.464 11.9189C10.6541 12.1104 10.816 12.1479 11.0232 12.2715C11.1529 12.3485 11.2767 12.2523 11.2213 12.5228C10.6833 12.5279 10.0567 11.9483 9.9239 11.4478C9.87462 11.2614 10.0516 11.2533 10.113 11.308H10.114Z" fill="#5A6B2B"/>
<path d="M3.98082 11.2057C4.02407 11.5694 3.97076 11.535 3.63282 11.5076C3.37635 11.4863 2.63309 11.459 2.67332 11.1044L3.98082 11.2057Z" fill="#5A6B2B"/>
<path d="M13.434 12.5218C13.3907 12.5634 12.4503 12.1358 12.3236 12.0669C12.2593 12.0325 11.9475 11.9656 12.1285 11.8126C12.1888 11.7619 13.5416 12.0811 13.435 12.5208L13.434 12.5218Z" fill="#5A6B2B"/>
<path d="M4.18196 20.0193C4.06629 20.1743 2.92978 20.1956 2.97604 19.7173C3.40752 19.9342 3.90839 19.5056 4.18196 20.0193Z" fill="#5A6B2B"/>
<path d="M14.8431 17.7923C15.1076 18.0466 14.4005 17.9949 14.301 17.9828C14.0304 17.9483 13.5627 17.8592 13.435 17.5897C13.6392 17.5988 14.7827 17.7345 14.8431 17.7923Z" fill="#5A6B2B"/>
<path d="M1.86868 18.7032L1.21393 17.996L2.82517 18.8035C2.96295 19.001 2.64614 18.8764 2.57372 18.8531C2.35547 18.7832 2.1161 18.7518 1.96926 18.7022C1.93909 18.692 1.89885 18.7123 1.86868 18.7022V18.7032Z" fill="#5A6B2B"/>
<path d="M19.9725 1.07397L20.4753 1.1763C20.6161 1.27053 19.3187 1.68188 19.1678 1.47924C19.3992 1.37286 19.6124 1.17327 19.9725 1.07397Z" fill="#5A6B2B"/>
<path d="M13.8363 14.8521C13.3887 14.7275 12.7772 14.695 12.5298 14.2452C12.6998 14.1885 14.0545 14.6525 13.8363 14.8521Z" fill="#5A6B2B"/>
<path d="M1.9693 19.0071V18.8044L3.17421 19.464C2.7548 19.5208 2.27505 19.0972 1.9693 19.0071Z" fill="#5A6B2B"/>
<path d="M15.1951 20.5269C15.1589 20.5218 14.9416 20.4164 14.9426 20.3749L15.1981 20.3192L16.6534 20.5269C16.1908 20.4843 15.6457 20.5856 15.1951 20.5269Z" fill="#5A6B2B"/>
<path d="M25.2025 3.20162C25.2538 3.14488 25.3 3.08105 25.3051 3H25.4026C25.3926 3.20466 25.6158 3.48328 25.6118 3.65046C25.6098 3.74468 25.4167 3.69503 25.4036 3.70821L25.0023 3.40223C24.9571 3.32016 25.1652 3.24316 25.2025 3.20162Z" fill="#5A6B2B"/>
<path d="M3.07562 11.611C3.23956 11.6434 4.18599 11.7285 4.18297 11.8643C3.82492 12.0203 3.43468 11.848 3.07562 11.8136V11.611Z" fill="#5A6B2B"/>
<path d="M5.28827 11.9149C5.66543 11.9443 6.0778 12.0983 6.49519 12.0172C6.30309 12.3789 5.63526 12.1773 5.28827 12.1176V11.9149Z" fill="#5A6B2B"/>
<path d="M6.59425 14.1416L6.59418 14.3453L7.50037 14.3456L7.50044 14.1419L6.59425 14.1416Z" fill="#5A6B2B"/>
<path d="M10.0154 18.3992C10.2156 18.4073 10.4187 18.3921 10.6189 18.3992C10.4932 18.7113 10.0164 18.5907 9.71368 18.6008L10.0154 18.3982V18.3992Z" fill="#5A6B2B"/>
<path d="M6.59579 16.0679C6.38257 16.0122 5.80928 16.2432 5.89276 15.8673L6.59579 16.0679Z" fill="#5A6B2B"/>
<path d="M22.0846 4.41747C22.0876 4.44989 22.0876 4.48636 22.0846 4.51878L21.7819 3.6586C21.8855 3.49852 21.9056 3.73763 21.9327 3.80957C22.0142 4.02638 22.0635 4.18241 22.0856 4.41747H22.0846Z" fill="#5A6B2B"/>
<path d="M3.67907 12.6241C3.86111 12.6535 4.29963 12.61 4.3831 12.8258C4.11758 12.8156 3.84401 12.843 3.57849 12.8268L3.67907 12.6241Z" fill="#5A6B2B"/>
<path d="M5.28828 11.9149V12.1176C5.10523 12.0862 4.84977 12.1773 4.7854 11.9159C4.95135 11.923 5.12233 11.9018 5.28828 11.9159V11.9149Z" fill="#5A6B2B"/>
<path d="M25.6048 4.01221C25.6088 4.25131 25.6722 4.36479 25.4036 4.31616C25.4137 4.18343 25.3885 4.0426 25.4036 3.91089C25.4921 3.91089 25.5585 3.92913 25.6048 4.01221Z" fill="#5A6B2B"/>
<path d="M22.4869 4.72139C22.2837 4.72949 22.1771 4.61804 22.1852 4.41744C22.4899 4.38096 22.4245 4.6302 22.4869 4.72139Z" fill="#5A6B2B"/>
<path d="M22.6881 5.22796C22.497 5.14387 22.4477 5.08814 22.5875 4.92401C22.5965 4.94124 22.7021 4.96758 22.7645 5.07295C22.7856 5.10942 22.683 5.21175 22.6881 5.22796Z" fill="#5A6B2B"/>
<path d="M9.6131 18.2979C9.70764 18.2706 9.84342 18.0092 9.81425 18.3992C9.72876 18.3932 9.64227 18.3962 9.6131 18.2979Z" fill="#5A6B2B"/>
<path d="M25.5042 6.44377H25.303C25.3151 6.26647 25.297 5.62108 25.2025 5.53192C25.4398 5.77812 25.5052 6.11247 25.5042 6.44377Z" fill="#5A6B2B"/>
<path d="M22.1841 16.0689C22.329 16.2128 22.0112 16.4762 21.8854 16.0162C21.9387 15.999 22.1741 16.0577 22.1841 16.0689Z" fill="#5A6B2B"/>
<path d="M17.6592 12.5228C17.6461 12.5076 17.2448 12.536 17.4591 12.3212C17.6733 12.1064 17.6441 12.5107 17.6592 12.5228C17.7538 12.6029 18.0887 12.7052 18.2335 12.8572C18.3964 13.0284 18.4759 13.3891 18.8661 13.536C18.8319 13.5309 18.7444 13.5796 18.7656 13.6373C18.3441 13.1946 18.0857 13.0314 17.6592 12.5228Z" fill="#5A6B2B"/>
<path d="M14.3402 10.4975C14.7324 10.8663 13.2087 10.4742 13.2338 10.6484L14.6409 11.7113C14.2306 11.693 12.4695 10.8551 13.0739 10.387C13.262 10.2411 14.2557 10.4185 14.3392 10.4975H14.3402Z" fill="#5A6B2B"/>
<path d="M8.90906 9.78727C9.02975 9.40835 10.7416 9.612 10.82 9.68697C11.167 10.0193 10.4911 9.78727 10.468 9.78727H8.90906Z" fill="#5A6B2B"/>
<path d="M28.9238 1.98586C32.273 -0.898641 37.4637 1.26954 37.7785 5.67988C38.0732 9.81057 34.891 11.5421 32.805 14.456C32.3585 15.0801 31.8284 15.7548 31.9421 16.5745C32.6662 15.7315 33.154 14.7011 33.9013 13.8379C34.4857 13.1621 35.1092 12.8187 35.6624 12.3192L35.7127 12.6231L35.9641 12.3202H35.6624C36.8985 11.2047 38.039 10.0041 39.7639 9.51067C40.9678 9.16721 41.6829 9.26245 42.8496 9.2746C43.5526 9.2817 44.3884 9.21381 45.0653 9.28068C45.6949 9.34249 46.403 9.70621 46.9853 9.77714C47.4178 9.82982 47.7497 9.67886 48.0725 9.69507C49.368 9.7589 50.935 10.0294 52.0302 10.769C52.0845 10.8055 52.4587 11.1095 52.3571 11.2047C48.7967 9.23914 44.488 10.0416 40.9256 11.5927C37.3632 13.1439 35.9128 14.9504 33.3019 17.3881C33.2033 17.4803 32.7095 17.9099 32.6441 17.9403C32.1643 18.1652 31.6072 17.7771 31.5398 17.2837C31.4955 16.9575 31.7027 16.2807 31.3386 16.3719C31.3758 16.2462 31.3728 16.153 31.4392 15.9666V16.2695H31.6393V15.9666H31.4392C31.4704 15.8805 31.5026 15.8349 31.5398 15.764L31.7399 15.8653C31.759 15.7792 31.7148 15.612 31.7409 15.5613C32.62 13.8936 34.2765 12.6414 35.1605 11.0021C35.4351 10.7711 36.1753 10.382 36.2478 10.0233C36.2618 9.95343 36.1643 9.89568 36.1663 9.88757C36.2417 9.55221 36.7969 9.04056 36.989 8.63935C37.6397 7.28068 37.6086 5.63023 37.1721 4.21382C37.0483 3.8126 36.8301 3.22699 36.5414 2.92101C36.4962 2.87238 36.3825 2.91088 36.3674 2.8967C35.9742 2.54107 35.4773 1.95141 35.0992 1.6971C34.8477 1.5279 34.6214 1.55627 34.4565 1.47826C34.195 1.35465 33.9888 1.16316 33.6519 1.07299C32.9488 0.88454 32.1251 0.838947 31.4171 1.00004C31.0691 1.07907 29.1591 1.88251 29.0254 2.08616L28.9248 1.98484L28.9238 1.98586ZM40.8934 9.99092C43.3766 9.43469 41.3329 9.41949 40.1672 9.71533C39.1051 9.98382 37.0101 11.1652 36.2608 11.9625C35.9712 12.2716 36.1975 12.3263 36.116 12.5198C36.0557 12.6637 35.427 13.2574 35.2601 13.1297L35.5618 12.7265C35.0257 12.7052 34.8859 13.3617 34.4575 13.5877L35.1575 13.2817C34.8075 13.766 34.3841 14.1935 34.0119 14.6586C33.9033 14.7944 33.7706 15.1378 33.7504 15.1561C33.3491 15.5127 33.8239 14.308 33.9516 14.2949C33.8329 14.3111 33.5915 14.5826 33.5201 14.6758C32.9941 15.3698 32.7034 16.2564 32.2297 16.9159C32.097 17.1013 31.8666 17.1753 31.8546 17.1956C31.7037 17.4549 32.2579 17.9717 32.5425 17.7407C33.4588 16.8349 34.2413 15.9048 35.2138 15.0598C36.3483 14.074 37.6015 13.0304 38.9502 12.2381C39.6794 11.8096 40.5192 11.4438 41.2937 11.1024C41.1881 10.7832 40.9175 10.9473 40.6922 10.9524C40.9336 10.7245 41.3007 10.6019 41.5652 10.4175C41.6336 10.3698 41.8479 10.3587 41.696 10.1925C41.5703 10.0558 40.9708 10.1905 40.8924 9.9899L40.8934 9.99092ZM46.0208 9.78828C45.018 9.56741 43.622 9.27764 42.6122 9.54816C42.5609 9.56234 41.9615 9.95444 41.9404 9.98889C41.878 10.0902 42.0058 10.2564 41.9504 10.3921C41.8469 10.6485 41.4415 10.5948 41.4958 10.9018L46.0208 9.7893V9.78828Z" fill="#5A6B2B"/>
<path d="M52.4587 18.0953C52.4718 18.0821 52.5834 18.1166 52.6287 18.0659C52.6961 17.9909 53.0461 17.4894 52.7122 17.5897C52.3058 17.7113 51.7748 18.153 51.2779 18.2736C51.1754 18.2979 50.7449 18.3921 50.7489 18.1976C51.2789 18.0132 51.8402 17.8167 52.2928 17.4722C52.6156 17.227 52.7584 16.8369 53.0612 16.5755C52.3219 16.8653 51.5837 17.5461 50.7891 17.6809C50.6876 17.6981 50.42 17.7619 50.4472 17.5897C50.6705 17.538 50.8786 17.3779 51.0607 17.2412C51.111 17.2027 51.4298 17.1317 51.2508 16.9808C51.1774 16.918 50.3164 17.4762 50.0449 17.2837L50.4462 16.9818L49.3398 17.1824L51.3956 16.2675C52.0021 16.0659 51.8261 16.3648 51.8965 16.3628C52.0041 16.3587 52.1892 16.2108 52.3551 16.2726L52.1057 16.6799L53.4604 16.0699C53.4856 16.4418 53.2704 16.7133 53.0591 16.9808C54.2148 16.7346 53.373 17.458 53.1185 17.9028C51.6853 20.4104 50.94 20.1784 48.5654 21.3202C47.5626 21.8025 46.7148 22.385 45.6145 22.8055C41.5301 24.3648 34.2252 25.0162 30.0834 23.5603C27.4081 22.6201 26.8388 18.9109 27.8144 16.5755C27.9492 16.6353 27.9331 16.8602 27.915 16.9808C27.8547 17.3871 27.6525 17.8025 27.6153 18.2493C27.5057 19.5593 27.8707 21.3131 28.8202 22.2493C28.8403 22.2787 29.1581 22.5948 29.2225 22.6545C30.2725 23.6323 32.8925 23.8987 34.3026 23.9706C38.0712 24.1642 42.0008 23.8703 45.5431 22.5299C45.7372 22.456 48.6469 21.2017 48.4326 21.0345L47.9297 20.8308C49.0783 20.7457 50.1394 20.5168 51.1482 19.917L50.7469 19.767C51.0466 19.5461 51.4248 19.4762 51.7255 19.2391C51.808 19.1743 51.9106 19.2412 51.8522 19.0071L51.1492 19.1064L51.6511 18.7032C51.3795 18.6363 51.1914 18.8237 50.9742 18.8825C50.8766 18.9088 50.6202 18.9838 50.6453 18.8045C51.1472 18.5836 51.637 18.385 52.153 18.1956C52.0846 18.2412 51.6591 18.611 51.7517 18.7022C51.8552 18.5877 52.2565 18.4316 52.3259 18.3729C52.3903 18.3192 52.342 18.2067 52.3541 18.1956C52.3893 18.1621 52.4205 18.1287 52.4547 18.0943L52.4587 18.0953ZM50.5478 16.9798C50.7811 17.0203 50.9128 16.8957 51.0486 16.7265C50.932 16.6667 50.4623 16.9149 50.5478 16.9798ZM51.4027 16.8795V16.9808C51.468 16.9474 51.468 16.9129 51.4027 16.8795ZM53.0119 17.4874V17.5887C53.0773 17.5553 53.0773 17.5208 53.0119 17.4874ZM52.0061 18.9058V19.0071C52.0715 18.9737 52.0715 18.9392 52.0061 18.9058ZM51.3021 19.7163V19.8177C51.3675 19.7842 51.3675 19.7498 51.3021 19.7163Z" fill="#5A6B2B"/>
<path d="M29.7284 3.20166L29.4267 3.50764C29.8461 3.82071 29.6882 3.75688 29.6278 4.21483C29.6047 4.39011 29.4971 4.4509 29.5464 4.74472C29.6892 5.60591 30.2906 5.73965 30.9353 5.228C31.1938 5.02233 31.0701 5.05779 31.1365 4.82273C31.1445 4.79335 31.1295 4.75485 31.1365 4.72142C31.3356 4.72952 31.4463 4.62213 31.4382 4.41746C31.4684 4.41037 31.5056 4.42253 31.5388 4.41746C31.572 4.4124 31.6062 4.42253 31.6394 4.41746C31.6585 4.41443 31.747 4.53094 31.9401 4.31615C31.7208 5.31108 30.5491 5.54816 29.9276 6.18849C29.6158 6.46306 28.0347 8.78322 27.8708 8.78423C27.7601 8.78423 27.6294 8.77815 27.561 8.67886C27.2925 8.29284 27.9221 6.93013 27.919 6.39213C27.917 6.01523 27.6193 5.71736 27.6143 5.38403C27.6093 5.0507 27.8185 4.59882 27.7189 4.21584C27.9291 4.19254 27.7652 4.56843 27.8185 4.62111C28.0599 4.85819 28.1946 4.33236 28.2208 4.31615C28.2761 4.2817 28.4441 4.32932 28.6301 4.17329C28.8423 3.99497 28.8866 3.70115 29.0254 3.50561C29.2406 3.92709 29.4689 3.69507 29.2265 3.30298C29.3523 3.26346 29.5232 3.27056 29.7294 3.20166H29.7284ZM29.4257 3.91189C29.2849 3.83894 29.1571 3.97572 29.2255 4.01118C29.3663 4.08413 29.4941 3.94735 29.4257 3.91189ZM29.477 4.11351V4.21483C29.5424 4.1814 29.5424 4.14695 29.477 4.11351ZM28.1192 6.74776C28.0397 7.17633 27.9693 7.64948 27.7179 8.01523C27.6968 8.0821 27.8084 8.09021 27.8667 8.06387C27.9321 8.0355 28.7086 7.14087 28.8202 6.99801C28.9681 6.81057 29.7355 5.78322 29.6278 5.63428C29.2044 5.57248 28.8474 5.23813 28.4219 5.43165C28.3787 5.59882 28.5949 5.47521 28.6241 5.5968C28.6643 5.76194 28.6 6.64239 28.5074 6.7356C28.4672 6.77714 28.3777 6.74168 28.3214 6.74776L28.3726 5.53398C28.0176 5.87947 28.1987 6.32223 28.1202 6.74776H28.1192Z" fill="#5A6B2B"/>
<path d="M50.5478 11.611C50.9239 11.5411 51.5415 11.3303 51.8854 11.4104C51.9649 11.4286 51.9639 11.5674 52.0303 11.608C52.9646 12.1824 52.5392 12.381 51.6551 12.5239C51.6601 12.843 52.0655 12.8947 51.9458 13.2675C51.8533 13.5573 50.9179 13.6535 50.8495 13.7407C50.8133 13.7863 51.0074 13.9139 51.0346 14.0173C51.1633 14.5026 50.7781 14.5228 50.6011 14.7538C50.1414 15.3577 49.886 15.6201 49.2634 16.071C49.0753 16.2067 48.4507 16.4742 48.3904 16.5725C48.3472 16.6424 48.2778 17.3587 48.3351 17.4884H47.8322C47.7206 17.0943 48.0967 17.0061 48.1339 16.6789C47.4792 16.5694 47.7286 16.7934 47.5365 17.0345C46.8828 17.8541 44.9416 17.7518 44.0103 17.5887C43.9771 17.5624 44.138 17.3871 44.1612 17.3871H46.3738C46.4342 17.3871 47.5586 16.9747 47.3293 16.7802C46.7399 16.7559 46.1626 16.9585 45.5682 16.8815C45.4214 16.8623 45.2564 16.8045 45.4194 16.6789C46.6172 16.6383 47.8352 16.5624 48.9385 16.0689L47.8332 15.8683C48.494 15.8501 49.1306 15.692 49.712 15.379C49.8638 15.2969 50.2028 15.1804 50.1455 14.9565C49.5812 14.9312 49.0311 15.0811 48.4779 15.151C48.2788 15.1763 48.3331 15.1277 48.3361 14.9565C48.8973 14.8704 49.5279 14.7923 50.068 14.6231C50.409 14.5158 50.9632 14.3851 50.6916 13.9332C50.2581 13.7346 49.8558 14.0953 49.3952 14.0477C49.2544 14.0335 49.0904 13.9676 49.2423 13.842C49.6034 13.8045 51.7537 13.3445 51.7547 13.0811C51.0396 12.383 50.1042 12.9585 49.2423 12.8268L51.6199 12.3364C51.8281 12.2675 52.5653 12.0912 52.1319 11.8916C51.7527 11.7184 51.0607 11.6606 50.6494 11.7123L50.5488 11.611H50.5478Z" fill="#5A6B2B"/>
<path d="M33.148 19.8177C33.1711 19.8248 33.2063 19.9018 33.2486 19.919C33.329 20.1105 34.4816 20.2756 34.1527 20.6282C34.0934 20.6921 33.2647 20.1784 33.1148 20.1004C32.9971 20.0386 32.7588 20.0325 32.7447 20.0193C32.5274 19.8217 33.0152 19.7772 33.147 19.8177H33.148Z" fill="#5A6B2B"/>
<path d="M44.0103 18.2979C44.4246 18.3992 44.7877 18.384 45.1991 18.229C45.531 18.1044 45.6064 17.843 45.9202 17.7913C45.9403 18.4904 45.0744 18.3526 44.8129 18.5522C44.7173 18.6252 44.7445 18.8065 44.6439 18.9119C44.3774 19.1925 43.7548 19.1662 43.4842 19.3121C43.3505 19.384 43.3324 19.611 43.0769 19.7386C42.7953 19.8795 42.3035 19.8653 42.0681 20.0142C41.9515 20.0882 41.9213 20.2939 41.6668 20.4468C39.7498 21.5927 36.8492 21.4073 34.8588 20.5755C34.2473 20.3202 33.9084 20.1571 33.2476 19.919C33.2254 19.9109 33.1922 19.8379 33.147 19.8177L32.6441 19.4124C33.3662 19.4539 34.0079 19.1611 34.6546 18.9058L34.4474 19.2533L33.4487 19.7143C34.6134 20.0628 35.6946 19.8106 36.8673 19.7163C36.285 20.2006 35.3697 20.1155 34.6546 20.1216C34.7673 20.3384 35.1153 20.4134 35.3335 20.5005C36.8271 21.0912 38.0994 21.1125 39.6825 20.9301L38.9794 20.5259H40.6389C40.8129 20.5259 41.4415 20.1297 41.694 20.1196C41.6236 19.7954 40.994 20.0558 40.8904 19.8177C41.5652 19.6829 42.228 19.7771 42.8818 19.538C43.0427 19.4793 43.1503 19.5938 43.1031 19.3101H41.4938V19.1074H43.3545C43.4611 19.1074 44.5564 18.7123 44.4106 18.6019C44.2768 18.5958 44.142 18.6059 44.0083 18.6019V18.2979H44.0103Z" fill="#5A6B2B"/>
<path d="M35.1595 7.5583C35.0771 7.82476 34.3107 8.47116 34.8578 8.47015C34.6768 8.76093 34.7462 8.58971 34.6567 8.67279L34.6054 8.57248C34.5511 8.58464 34.4726 8.55526 34.4555 8.57248C34.3459 8.67684 34.5118 8.85212 34.6567 8.77512C34.5551 8.90176 34.5591 8.9737 34.3449 9.17025C34.3931 9.12162 34.3931 9.04259 34.3449 8.99295C34.2966 8.9433 34.2181 8.94432 34.1689 8.99295C34.1196 9.04158 34.1206 9.12061 34.1689 9.17025C34.2171 9.2199 34.2956 9.21889 34.3449 9.17025C32.8211 10.7397 31.0892 12.3161 29.6771 14.0426C29.2034 14.6211 29.143 15.2067 28.6221 15.6647C28.6261 15.5806 28.614 15.4874 28.5215 15.462C29.9446 13.1621 31.8335 11.3597 33.6459 9.32729C33.8078 9.14594 34.375 8.6971 34.4555 8.57248C34.6617 8.25131 35.1002 6.86732 35.1595 6.44482H35.2601C35.242 6.81666 35.2722 7.19761 35.1595 7.55931V7.5583Z" fill="#5A6B2B"/>
<path d="M35.1585 5.43062C34.8377 5.19252 34.8719 4.70721 34.6416 4.38199C34.368 3.99496 33.5614 3.71025 33.0967 3.70114C32.6321 3.69202 32.3404 3.85716 31.9411 4.01218V3.40529C32.276 3.75889 32.45 3.44886 32.804 3.4134C34.1065 3.28371 35.1455 4.08107 35.1585 5.43163V5.43062Z" fill="#5A6B2B"/>
<path d="M29.0244 2.08716C29.0033 2.11958 29.0334 2.28574 28.9681 2.37996C28.5547 2.97672 28.1906 3.54916 28.2198 4.31613L28.0176 3.91086C27.9784 3.86527 27.7491 4.04663 27.7179 4.01218C27.5409 3.8136 27.8848 3.81056 27.8969 3.79638C27.914 3.77713 27.8114 3.57449 27.8577 3.40529C28.0005 2.87844 28.5215 2.33234 28.9238 1.98584L29.0244 2.08716Z" fill="#5A6B2B"/>
<path d="M41.3943 18.7032C41.4617 18.9089 41.0855 19.075 40.9608 19.1257C40.3372 19.383 39.3687 19.4377 38.7803 19.0558C38.7421 18.7802 38.9503 18.9413 39.082 18.9545C39.9721 19.0436 40.5555 19.0325 41.3933 18.7032H41.3943Z" fill="#5A6B2B"/>
<path d="M28.5215 15.461C28.614 15.4863 28.6261 15.5795 28.6221 15.6636C28.607 15.9514 28.259 16.9139 27.918 16.9808C27.9361 16.8602 27.9522 16.6353 27.8174 16.5755C28.0769 15.9544 28.2881 15.8389 28.5215 15.461Z" fill="#5A6B2B"/>
<path d="M49.1387 10.2949L46.5217 10.6546L46.1224 10.5462L48.2999 10.1996L49.1387 10.2949Z" fill="#5A6B2B"/>
<path d="M45.3167 14.1439C45.2473 14.9271 44.1511 15.1652 43.5074 15.1561C43.4591 14.8754 43.5647 14.9849 43.7276 14.9281C43.959 14.8471 44.2104 14.8288 44.4367 14.7255C44.7847 14.5664 44.9657 14.2331 45.3167 14.1439Z" fill="#5A6B2B"/>
<path d="M35.2601 19.0061C35.0902 18.8764 35.2722 18.8227 35.41 18.8045C36.284 18.6931 36.8844 18.5826 37.672 18.1439C37.0655 18.8997 36.1854 19.0922 35.2611 19.0051L35.2601 19.0061Z" fill="#5A6B2B"/>
<path d="M39.4833 16.5755C39.3103 17.2168 38.3277 17.2969 37.7745 17.2837C37.7695 16.8491 38.2905 17.0172 38.5852 16.9362C38.909 16.847 39.1615 16.6292 39.4833 16.5755Z" fill="#5A6B2B"/>
<path d="M39.2822 14.7518C39.6221 15.1216 37.9535 15.7508 37.7735 15.5613C37.7534 15.5401 37.7856 15.3405 37.7735 15.2584C38.0139 15.2766 38.2281 15.2533 38.4604 15.1885C38.6596 15.1328 39.2349 14.6991 39.2822 14.7518Z" fill="#5A6B2B"/>
<path d="M28.8232 22.2493C28.7598 22.1551 28.5526 21.7853 28.5235 21.69C28.5094 21.6454 28.4591 21.2341 28.623 21.3871C28.9157 21.8197 29.2134 22.383 29.7284 22.5553L29.2265 22.6546C29.1621 22.5948 28.8443 22.2787 28.8242 22.2493H28.8232Z" fill="#5A6B2B"/>
<path d="M37.5724 16.8795C37.9525 17.2625 35.934 17.845 35.6624 17.5877C35.5025 17.4651 35.6624 17.4033 35.8113 17.3851C36.1904 17.3395 36.4881 17.4063 36.8935 17.2574C37.0695 17.1926 37.505 16.8106 37.5734 16.8795H37.5724Z" fill="#5A6B2B"/>
<path d="M46.1214 11.2057C46.0711 11.996 45.1197 12.4752 44.4126 12.5208L45.4113 11.9575L46.1214 11.2047V11.2057Z" fill="#5A6B2B"/>
<path d="M43.608 16.6778C43.1463 17.2351 42.3548 17.2077 41.698 17.1824C41.6155 16.8217 42.1908 17.0243 42.4433 16.9717C42.8365 16.8886 43.1896 16.6535 43.608 16.6778Z" fill="#5A6B2B"/>
<path d="M31.3376 16.3729C31.7017 16.2817 31.4945 16.9585 31.5388 17.2847L31.1375 17.7913C31.1516 17.5836 30.9957 17.3445 31.0319 17.149C31.045 17.078 31.217 17.0932 31.2351 17.0142C31.2843 16.7974 31.2522 16.6586 31.3376 16.3729Z" fill="#5A6B2B"/>
<path d="M43.3052 13.6373C43.1533 14.2736 42.3407 14.3729 41.7976 14.4469C41.7513 14.1865 41.8388 14.2655 41.9987 14.1996C42.4412 14.0173 42.8778 13.8552 43.3052 13.6373Z" fill="#5A6B2B"/>
<path d="M44.311 22.5532C44.3502 22.771 44.2144 22.7943 44.0585 22.8551C43.9127 22.9129 42.7551 23.2057 42.7028 23.1601C42.6635 22.9423 42.7993 22.919 42.9552 22.8582C43.101 22.8004 44.2587 22.5076 44.311 22.5532Z" fill="#5A6B2B"/>
<path d="M36.1653 9.88861C36.1633 9.89672 36.2609 9.95345 36.2468 10.0244C36.1744 10.3841 35.4341 10.7731 35.1595 11.0031C35.1867 10.9535 35.1545 10.8055 35.2541 10.6465C35.3868 10.4357 35.8968 9.96662 36.1653 9.88861Z" fill="#5A6B2B"/>
<path d="M36.3665 2.89769C36.3815 2.91188 36.4952 2.87338 36.5405 2.92201C36.8301 3.22799 37.0474 3.8136 37.1711 4.21481C36.7798 4.05777 36.3735 3.30803 36.3665 2.89769Z" fill="#5A6B2B"/>
<path d="M48.8379 11.9149C48.8621 12.0547 48.6589 12.0689 48.5603 12.0902C48.1218 12.1864 47.5777 12.2179 47.1281 12.2179L47.3293 11.9149H48.8379Z" fill="#5A6B2B"/>
<path d="M41.4948 11.8136C41.5461 12.075 41.4395 11.9909 41.2987 12.0669C41.177 12.1328 40.2286 12.5654 40.1883 12.5218C40.1039 12.4306 40.1702 12.2837 40.3141 12.1915C40.48 12.0841 41.3872 11.7285 41.4948 11.8136Z" fill="#5A6B2B"/>
<path d="M50.6473 19.7163C50.949 19.9909 49.5219 20.2705 49.3408 20.0182C49.6546 19.5187 50.2068 19.923 50.6473 19.7163Z" fill="#5A6B2B"/>
<path d="M29.7284 3.20163C29.847 3.16212 30.0784 2.88856 30.2302 3.04865C30.185 3.3607 29.8481 3.28471 29.8289 3.30295C29.6419 3.4833 30.0351 3.5147 30.0371 3.56131C30.0442 3.7376 29.831 4.15097 29.6278 4.2148C29.6881 3.75685 29.846 3.81967 29.4266 3.50761L29.7284 3.20163Z" fill="#5A6B2B"/>
<path d="M41.0925 14.1439C41.1961 14.5624 39.8514 14.9099 39.786 14.8521C39.7428 14.6201 39.8917 14.6232 40.0405 14.5522C40.3654 14.3982 40.7566 14.2827 41.0925 14.1439Z" fill="#5A6B2B"/>
<path d="M50.9491 11.1044C50.9903 11.3485 50.9229 11.2959 50.7499 11.3536C50.415 11.4661 49.4535 11.7315 49.6426 11.2057L50.9501 11.1044H50.9491Z" fill="#5A6B2B"/>
<path d="M40.0868 17.5887C40.133 17.8491 40.0445 17.77 39.8856 17.8359C39.5426 17.9777 39.1484 18.0132 38.7803 17.9929C38.742 17.769 38.7974 17.7903 38.9764 17.7407C39.3053 17.6495 39.7408 17.6505 40.0868 17.5897V17.5887Z" fill="#5A6B2B"/>
<path d="M34.4555 1.47924L33.9536 1.68086L34.1537 1.48026C34.0562 1.53294 32.974 1.29181 33.149 1.1763L33.6519 1.07397C33.9888 1.16415 34.195 1.35564 34.4565 1.47924H34.4555Z" fill="#5A6B2B"/>
<path d="M35.1595 7.55828C35.6865 7.51167 34.9845 8.26649 34.8578 8.47013C34.3106 8.47115 35.077 7.82474 35.1595 7.55828Z" fill="#5A6B2B"/>
<path d="M43.5064 11.611C43.6935 11.8359 42.7702 12.6677 42.4011 12.4195L43.5064 11.611Z" fill="#5A6B2B"/>
<path d="M45.5189 22.2503C45.3047 22.5502 44.7585 22.6353 44.4136 22.6535C44.3613 22.3648 44.484 22.4884 44.6348 22.4266C44.9154 22.3111 45.2101 22.2209 45.5199 22.2503H45.5189Z" fill="#5A6B2B"/>
<path d="M29.4256 20.5259C29.2335 20.7285 28.7045 19.6009 28.8242 19.4124L29.4256 20.5259Z" fill="#5A6B2B"/>
<path d="M50.5477 11.611L50.6483 11.7123C50.3436 11.7508 49.8709 12.0649 49.4414 11.9139C49.6355 11.614 50.2199 11.6718 50.5477 11.611Z" fill="#5A6B2B"/>
<path d="M44.0103 18.2979V18.6018C43.7186 18.5917 43.3756 18.6545 43.1041 18.5502C43.084 18.2513 43.5506 18.4499 43.7427 18.3992C43.9208 18.3516 43.619 18.2027 44.0103 18.2979Z" fill="#5A6B2B"/>
<path d="M38.5781 20.3253C38.5962 20.4732 38.3146 20.5066 38.2181 20.5178C37.8067 20.5623 37.3823 20.5066 36.9699 20.5259L38.5781 20.3253Z" fill="#5A6B2B"/>
<path d="M47.0275 14.1449C46.8777 14.4813 46.408 14.3131 46.1224 14.3455C46.0489 13.9473 46.7972 14.2178 47.0275 14.1449Z" fill="#5A6B2B"/>
<path d="M31.6393 4.41747C31.6061 4.42254 31.5719 4.4124 31.5388 4.41747L31.8395 3.60693L31.6393 4.41747Z" fill="#5A6B2B"/>
<path d="M47.7306 15.8663C47.8111 16.2543 47.1463 16.002 46.927 16.0669C46.9381 15.842 47.6833 15.8308 47.7306 15.8663Z" fill="#5A6B2B"/>
<path d="M30.9353 5.22802C30.7261 4.90583 30.8519 4.93826 31.1365 4.82275C31.0701 5.05781 31.1938 5.02235 30.9353 5.22802Z" fill="#5A6B2B"/>
<path d="M29.2255 3.30298C29.4679 3.69508 29.2396 3.92709 29.0244 3.50561C29.0867 3.41747 29.0958 3.34351 29.2255 3.30298Z" fill="#5A6B2B"/>
<path d="M35.2601 6.44378H35.1596C35.1777 6.31815 35.1505 6.17023 35.1596 6.03851H35.2601C35.2621 6.0608 35.3627 6.12362 35.3617 6.20569C35.3617 6.35665 35.2601 6.43061 35.2601 6.44378Z" fill="#5A6B2B"/>
<path d="M31.4382 4.41748C31.4463 4.62214 31.3356 4.72954 31.1365 4.72143C31.1506 4.65456 31.1345 4.57959 31.1837 4.51576C31.2622 4.41343 31.3437 4.43977 31.4382 4.41748Z" fill="#5A6B2B"/>
<path d="M35.2601 6.03854H35.1596C35.1676 5.92102 35.1133 5.53094 35.2098 5.53094C35.3154 5.63935 35.2491 5.88555 35.2601 6.03854Z" fill="#5A6B2B"/>
<path d="M31.7399 15.5623C31.7138 15.613 31.758 15.7801 31.7389 15.8663L31.5388 15.765C31.575 15.6961 31.4563 15.5076 31.7399 15.5623Z" fill="#5A6B2B"/>
<path d="M34.6567 8.67281C34.6396 8.688 34.6728 8.75386 34.6567 8.77412C34.5118 8.85112 34.3459 8.67585 34.4555 8.57149C34.4726 8.55528 34.5511 8.58466 34.6054 8.57149L34.6567 8.67179V8.67281Z" fill="#5A6B2B"/>
<path d="M29.6268 20.9311C29.5795 21.0294 29.4327 20.7305 29.476 20.6302C29.5846 20.7204 29.66 20.7832 29.6268 20.9311Z" fill="#5A6B2B"/>
<path d="M43.5577 11.4083C43.6231 11.4418 43.6231 11.4762 43.5577 11.5096V11.4083Z" fill="#5A6B2B"/>
<path d="M31.4407 15.9692L31.4399 16.2721L31.64 16.2726L31.6408 15.9697L31.4407 15.9692Z" fill="#5A6B2B"/>
<path d="M28.3203 6.74777C28.2549 6.75487 28.1855 6.74271 28.1191 6.74777C28.1976 6.32224 28.0166 5.87949 28.3716 5.534L28.3203 6.74777Z" fill="#5A6B2B"/>
<path d="M29.4256 3.91191C29.494 3.94737 29.3663 4.08415 29.2255 4.0112C29.1571 3.97574 29.2848 3.83896 29.4256 3.91191Z" fill="#5A6B2B"/>
<path d="M29.4769 4.11353C29.5423 4.14696 29.5423 4.18141 29.4769 4.21484V4.11353Z" fill="#5A6B2B"/>
<path d="M34.2564 9.20573C34.3252 9.20573 34.3811 9.14949 34.3811 9.0801C34.3811 9.01072 34.3252 8.95447 34.2564 8.95447C34.1875 8.95447 34.1317 9.01072 34.1317 9.0801C34.1317 9.14949 34.1875 9.20573 34.2564 9.20573Z" fill="#5A6B2B"/>
<path d="M39.082 11.6099L40.3885 10.6484C40.1823 10.5208 39.7941 10.7254 39.6855 10.3972C41.7292 10.0051 40.0556 11.6484 39.082 11.611V11.6099Z" fill="#5A6B2B"/>
<path d="M44.7133 9.68694L43.4561 9.88755H42.7028C42.5429 9.76495 42.7028 9.70416 42.8506 9.68491C43.442 9.61197 44.1269 9.6221 44.7133 9.68694Z" fill="#5A6B2B"/>
</g>
<defs>
<clipPath id="clip0_397_278">
<rect width="53.6566" height="24.3728" fill="white"/>
</clipPath>
</defs>
</svg>
