<svg width="73" height="57" viewBox="0 0 73 57" fill="none" xmlns="http://www.w3.org/2000/svg">
<path d="M19.0582 50.598C7.35862 40.6693 6.07269 22.7209 16.1787 10.5077C26.2925 -1.70548 43.9799 -3.53466 55.6795 6.40203C67.3711 16.3307 68.665 34.2791 58.5511 46.4923C48.4451 58.7055 30.7577 60.5347 19.0582 50.598ZM20.3047 50.4941C31.9332 59.7279 49.0211 57.3635 58.4486 45.1903C67.8682 33.017 66.0616 15.6598 54.433 6.41801C42.7965 -2.81577 25.7087 -0.443422 16.2891 11.7218C6.86949 23.8951 8.66821 41.2603 20.3047 50.4941Z" fill="#5A6B2B"/>
<mask id="mask0_932_4" style="mask-type:luminance" maskUnits="userSpaceOnUse" x="64" y="3" width="9" height="52">
<path d="M64.8463 3.93042H72.975V54.7408H64.8463V3.93042Z" fill="white"/>
</mask>
<g mask="url(#mask0_932_4)">
<path d="M67.5296 28.1447C64.7433 26.6522 66.7517 16.4822 67.2756 13.8623C67.9821 10.1944 68.3948 7.55861 70.2285 5.09748C71.0065 4.04158 71.6336 3.93043 72.1099 4.74816C72.9116 6.1772 72.3877 10.4723 72.2607 12.8302C71.9591 18.1415 72.1099 23.7782 72.737 29.7167C73.4276 36.4173 72.9513 43.3243 72.6735 50.3663C72.6497 51.192 72.475 51.97 72.221 52.6607C71.5304 54.4312 69.8634 54.6058 69.022 52.8513C67.5772 49.8503 67.9186 45.4044 68.371 42.0144C68.9346 37.7749 69.6094 33.5672 69.7999 29.288C69.7999 29.1371 69.7126 28.9863 69.5617 28.9387C68.8473 28.7719 68.1805 28.4861 67.5296 28.1447ZM67.9662 27.454C68.7441 27.8589 69.4506 28.1686 70.0777 28.3591C70.2285 28.3988 70.3159 28.5576 70.3159 28.7084C70.2524 30.6456 70.2524 32.551 69.9904 34.4484C69.5221 37.9496 69.0855 41.4666 68.6965 44.9916C68.4425 47.3892 68.633 51.1047 70.0618 53.153C70.1015 53.2403 70.1889 53.2879 70.2762 53.3038C71.6812 53.542 71.8717 50.6283 71.8956 49.6995C72.1575 41.8397 72.4989 34.7739 71.8082 27.6287C71.0303 19.8245 71.5939 13.2192 71.9194 5.91521C71.9352 5.58971 71.8082 5.27214 71.5701 5.03397C70.689 4.19242 68.8711 9.32903 68.7441 9.86889C68.3075 11.6393 65.418 26.1361 67.9662 27.454Z" fill="#5A6B2B"/>
</g>
<mask id="mask1_932_4" style="mask-type:luminance" maskUnits="userSpaceOnUse" x="0" y="3" width="10" height="52">
<path d="M0 3.93042H9.97822V54.7408H0V3.93042Z" fill="white"/>
</mask>
<g mask="url(#mask1_932_4)">
<path d="M3.02446 14.3623C3.08796 14.2512 3.12765 14.1242 3.15147 13.9733C3.30229 13.1556 3.3658 12.3299 3.3658 11.5519C3.34198 9.28925 3.41342 7.77287 3.47693 5.87542C3.50074 5.18472 4.19136 3.26345 4.94548 4.92273C5.12012 5.31175 5.31064 7.01866 5.28682 7.5347C5.1995 9.59093 5.18363 11.6392 5.18363 13.7113C5.18363 13.8463 5.1995 13.9733 5.24713 14.0607C5.48527 14.6243 5.61228 14.6005 5.67579 13.9971C5.82661 12.0521 5.93775 10.107 6.00125 8.18571C6.04888 7.10599 6.36641 6.1136 6.62836 5.07357C6.65218 4.98624 6.71568 4.89891 6.803 4.85922C7.74764 4.34317 8.0731 5.18472 8.13661 5.96275C8.46207 9.99583 8.54939 13.0683 8.37475 15.1404C8.28743 16.2439 7.77145 17.6888 6.86651 19.5228C6.65218 19.9594 6.45373 20.9756 6.2394 22.5952C5.43765 29.1132 6.19971 34.5595 7.4063 41.3871C8.03341 44.8644 8.24774 49.8264 6.43785 53.002C6.39022 53.0656 6.32672 53.137 6.2394 53.1529C1.33364 54.8598 1.07962 49.4215 1.25426 46.3967C1.44477 42.832 1.70673 40.4741 2.2624 35.79C2.80219 31.3203 2.88951 26.8268 2.54817 22.3094C2.48466 21.5314 2.34972 20.7533 2.13539 20.0229C1.68291 18.4272 0.254054 16.6964 0.150857 14.9419C3.44068e-05 12.3141 0.17467 9.69414 0.690649 7.12981C0.817659 6.45498 0.627146 5.67695 1.03199 4.94655C1.07962 4.85922 1.16694 4.7957 1.27013 4.77189C1.7226 4.68456 1.98456 4.81158 2.04807 5.2006C2.33384 7.14568 2.37353 9.56712 2.19889 12.4808C2.18301 12.9333 2.24652 13.5446 2.39735 14.2988C2.52436 14.8784 2.73868 14.9022 3.02446 14.3623ZM4.46919 6.39147C4.42157 5.43877 4.29456 5.46259 4.05641 6.41528C3.45311 8.93993 4.88198 12.6793 3.41342 14.9895C3.12765 15.4182 2.37353 15.7041 2.07188 15.315C1.7226 14.8784 1.5559 14.3862 1.5559 13.8463C1.53209 11.1232 1.57178 8.55091 1.64322 6.06596C1.64322 6.05009 1.40508 5.07357 1.33364 5.93894C1.16694 8.07456 0.944669 10.2181 0.690649 12.3776C0.277865 15.7676 2.73868 17.927 3.11178 21.0788C3.75476 26.5886 3.60394 32.3524 2.65137 38.402C2.19889 41.3157 1.98456 44.6898 2.04807 48.5085C2.07188 50.7791 3.11178 54.2326 6.02507 52.1843C6.08857 52.1446 6.12826 52.0732 6.15208 52.0097C8.22393 45.9442 6.32671 40.8234 5.58847 34.2975C5.1995 30.971 4.92167 28.1685 5.35033 24.2783C5.61228 21.9442 5.81074 19.8483 6.99352 17.2998C8.09692 14.9419 7.64444 11.2105 7.64444 8.61442C7.64444 7.98723 7.4063 7.1298 7.55712 6.20093C7.58094 6.12947 7.58094 6.05009 7.55712 5.97863C7.4063 5.37526 7.25548 5.37526 7.12847 5.97863C6.71568 7.98723 6.50135 9.5433 6.51723 10.6468C6.54104 12.4808 6.43785 13.9098 6.19971 14.9022C6.17589 15.0292 6.06476 15.1166 5.93775 15.1642L5.48527 15.2674C5.37414 15.2912 5.27095 15.2674 5.18363 15.1801C4.74703 14.7911 4.58033 14.2512 4.64383 13.5446C4.70734 12.6554 4.65971 10.2578 4.46919 6.39147Z" fill="#5A6B2B"/>
</g>
<path d="M55.2536 12.2059C63.9889 21.5441 63.2735 36.4358 53.6798 45.4314C44.0781 54.427 29.2146 54.1481 20.4793 44.8099C11.744 35.4637 12.4594 20.572 22.061 11.5764C31.6627 2.5808 46.5183 2.83577 55.2536 12.2059ZM53.8467 11.9429C45.0081 3.36164 30.7089 3.8158 21.8623 12.9389C13.0396 22.0699 13.0396 36.4199 21.8862 45.0012C30.7327 53.5824 45.024 53.1283 53.8706 44.0052C62.6933 34.8741 62.6933 20.5242 53.8467 11.9429Z" fill="#5A6B2B"/>
<path d="M30.516 47.981C23.1663 45.649 16.6962 38.5447 17.4227 30.3285C17.4227 30.2436 17.4686 30.1664 17.5527 30.0969C17.7975 29.8884 17.9275 30.0196 17.9275 30.4598C18.2563 43.232 30.9519 50.4984 42.3702 47.4096C42.7068 47.3247 43.7698 47.0544 43.2039 47.9193C43.1656 47.981 43.1045 48.0196 43.0203 48.066C38.8369 49.3478 34.6764 49.3015 30.516 47.981Z" fill="#5A6B2B"/>
</svg>
