<svg width="61" height="74" viewBox="0 0 61 74" fill="none" xmlns="http://www.w3.org/2000/svg">
<mask id="mask0_932_3" style="mask-type:luminance" maskUnits="userSpaceOnUse" x="29" y="0" width="5" height="6">
<path d="M29.9501 0.00012207H33.5196V5.71758H29.9501V0.00012207Z" fill="white"/>
</mask>
<g mask="url(#mask0_932_3)">
<path d="M31.3305 0.0349457L31.5257 0.0558633C31.7558 0.0976975 31.9161 0.306874 31.8952 0.536967L31.449 3.74432C31.4141 3.97442 31.198 4.12781 30.968 4.11387L30.7728 4.09295C30.5427 4.05111 30.3893 3.84194 30.4102 3.61185L30.8494 0.404489C30.8913 0.153477 31.1004 8.36104e-05 31.3305 0.0349457Z" fill="#5A6B2B"/>
</g>
<path d="M24.8416 5.42992C25.0977 5.80872 25.2641 6.15998 25.3538 6.49746C25.4434 6.83494 25.4242 7.04845 25.2962 7.14488C25.1745 7.24819 24.9761 7.19997 24.7072 7.00024C24.4383 6.80739 24.1759 6.52501 23.9262 6.14621C23.6702 5.77429 23.5037 5.41614 23.4141 5.07866C23.3245 4.74807 23.3437 4.52767 23.4717 4.43125C23.5933 4.32794 23.7918 4.37615 24.0606 4.57588C24.3295 4.76873 24.592 5.058 24.8416 5.42992Z" fill="#5A6B2B"/>
<path d="M34.9676 10.5625C34.4978 9.35752 36.3443 7.76067 37.1403 7.25057C37.2121 7.20621 37.2838 7.18403 37.3752 7.20621C38.6736 7.51671 35.8158 10.2964 35.4961 10.666C35.3656 10.8139 35.1699 10.8287 35.0394 10.6882C35.0263 10.6439 34.9872 10.6069 34.9676 10.5625Z" fill="#5A6B2B"/>
<mask id="mask1_932_3" style="mask-type:luminance" maskUnits="userSpaceOnUse" x="0" y="11" width="25" height="59">
<path d="M0 11.0725H24.5959V69.9763H0V11.0725Z" fill="white"/>
</mask>
<g mask="url(#mask1_932_3)">
<path d="M12.3747 44.408C9.92762 42.881 8.88187 40.6219 8.49843 37.8399C8.17076 35.5599 7.91978 33.0358 8.22654 30.6164C8.359 29.5775 8.28231 28.5177 8.42174 27.5694C9.11193 22.5283 9.94156 16.5668 11.6217 11.4699C11.6636 11.3304 11.796 11.2328 11.9494 11.2328C14.3825 11.2328 16.4879 11.3722 18.2866 11.679C19.4021 11.8743 20.5803 11.8324 21.4517 12.0067C22.4138 12.202 23.362 12.4878 24.3101 12.8155C24.4426 12.8783 24.5402 12.9899 24.5402 13.1433C24.4635 20.8339 23.5711 28.1899 21.877 35.1973C21.4866 36.7592 20.7546 38.5372 19.6321 40.5243C18.3982 42.7416 17.0108 44.0733 14.6544 44.673C14.5219 44.7148 14.4034 44.8473 14.4034 44.9867C14.1524 49.5189 13.6296 54.0371 12.8418 58.4995C12.2213 61.9369 11.8588 64.3285 11.6984 65.7021C11.5659 66.978 12.2771 67.494 13.4971 67.5149C13.9781 67.5149 21.3123 67.8635 19.9249 69.3278C19.8692 69.3905 19.8064 69.4254 19.7297 69.4254C14.02 70.4504 9.11194 69.8507 2.82352 69.2511C2.12636 69.1744 7.86781e-06 68.8258 0.815689 67.7102C0.850546 67.6474 0.906319 67.6125 0.969065 67.5916C3.26273 66.741 6.33722 66.6643 8.78427 66.5527C8.9237 66.5527 9.05616 66.4551 9.09799 66.3157C9.40474 65.3883 9.61389 64.4261 9.69058 63.4011C10.2135 57.1259 11.1616 50.9134 12.528 44.7706C12.5699 44.6172 12.5141 44.4638 12.3747 44.408ZM23.4177 13.2269C20.0992 12.2368 16.704 11.7557 13.2252 11.7766C13.2043 11.7766 13.1903 11.7976 13.1694 11.8115L13.1485 11.8533C13.1276 11.8882 13.1485 11.93 13.1903 11.951C13.1903 11.951 13.1903 11.951 13.2043 11.951C16.467 12.6412 19.7507 13.2269 23.0343 13.708C23.3829 13.7847 24.4983 13.5546 23.4177 13.2269ZM11.8378 13.1851C11.4335 14.8864 8.51237 29.3055 9.20954 29.8076C9.26531 29.8494 9.36291 29.8494 9.42566 29.7866C11.4893 27.9738 14.8078 27.0674 17.9938 26.1191C19.5973 25.638 21.1589 25.3661 22.6648 25.2894C22.8391 25.2894 22.9715 25.1569 22.9925 24.9826L23.8988 14.6354C23.9197 14.4401 23.7872 14.2658 23.592 14.2658C23.5711 14.2658 23.5572 14.2658 23.5362 14.2658C23.0134 14.3077 22.5114 14.2867 22.0095 14.231C18.7467 13.8056 15.5258 13.1642 12.3398 12.2996C12.1655 12.2368 11.9703 12.3554 11.9145 12.5297V12.5506C11.9145 12.5855 11.8936 12.6412 11.8936 12.6831C11.8727 12.9759 11.8588 13.1293 11.8378 13.1851ZM22.358 27.0116C22.609 26.7187 22.7066 26.391 22.6439 26.0424C22.6299 25.8472 22.4347 25.7356 22.2604 25.7565C22.2604 25.7565 22.2604 25.7565 22.2395 25.7565C19.674 26.2586 17.1851 26.9698 14.7311 27.8553C13.267 28.3991 12.3607 28.7687 11.9703 28.943C11.1616 29.3265 10.3877 29.8285 9.69058 30.449C9.25137 30.8325 9.32805 31.0278 9.9067 31.0417C10.332 31.0626 10.7572 31.0278 11.1825 30.965C14.1106 30.5257 20.3711 29.3474 22.358 27.0116ZM13.1276 45.0425C12.549 48.3056 12.0121 51.5479 11.4893 54.7692C10.9664 58.0184 10.7363 62.2995 10.0182 66.0507C9.86487 66.8177 8.90278 67.996 8.05225 67.9821C7.75944 67.9612 7.64789 67.8635 7.70366 67.6683C7.74549 67.5149 7.66881 67.3824 7.50846 67.3197C7.4736 67.3057 7.43177 67.3057 7.41783 67.3197C5.67492 67.494 3.91807 67.7102 2.18213 67.9402C1.93115 67.9821 1.3525 68.247 2.02875 68.4213C2.90021 68.6375 4.50368 68.8118 6.85312 68.9234C9.20954 69.0628 12.7023 69.3696 15.6792 69.2371C16.216 69.2162 16.8574 68.9652 17.5685 69.1953C17.6243 69.2162 17.687 69.2162 17.7219 69.2162L17.9171 69.1744C18.8443 69.021 18.8443 68.8258 17.9171 68.6375C16.2927 68.2889 14.6335 68.1146 12.9533 68.1355C12.8208 68.1355 12.7023 68.2122 12.6466 68.3237C12.5141 68.5957 12.298 68.6166 12.0261 68.4213C11.1198 67.7659 10.7154 66.8804 10.8548 65.7369C11.0082 64.2169 11.5241 61.163 12.3956 56.5681C12.7232 54.7901 13.1276 51.2202 13.5947 45.8513C13.6156 45.5445 13.769 45.0216 13.9991 44.3104C14.0339 44.2128 14.0967 44.1361 14.1943 44.1152C17.2618 42.7834 18.4958 41.3959 19.7297 38.3628C21.0055 35.274 21.877 32.1085 22.358 28.9011C22.4347 28.441 22.2604 28.3224 21.8561 28.5525C20.4687 29.3474 18.9977 29.961 17.457 30.4072C15.2539 31.0278 13.0161 31.5437 10.7712 31.969C10.3668 32.0457 9.9067 31.99 9.40474 31.7947C9.23045 31.739 9.03525 31.8157 8.95856 31.99C8.93764 32.0318 8.93764 32.0667 8.93764 32.1224C8.97947 33.768 9.07708 35.4065 9.23045 37.066C9.46052 39.4994 10.2553 42.1629 12.3956 43.4946C13.0161 43.8084 13.2461 44.3453 13.1276 45.0425Z" fill="#5A6B2B"/>
<path d="M16.5713 17.36C16.8377 17.8146 16.6622 18.4482 16.1553 18.7857C15.655 19.1301 15.0376 19.0199 14.7711 18.5584C14.4982 18.1039 14.6802 17.4702 15.1871 17.1327C15.6679 16.8021 16.2983 16.8986 16.5713 17.36ZM15.343 18.4276C15.564 18.5378 15.8304 18.4069 15.9604 18.1383C16.0839 17.8766 15.9929 17.5666 15.7784 17.4564C15.564 17.3394 15.291 17.4702 15.1676 17.7388C15.0571 18.0074 15.1286 18.3105 15.343 18.4276Z" fill="#5A6B2B"/>
<path d="M19.9396 21.0601C20.2197 21.7549 19.8032 22.5976 19.0061 22.945C18.209 23.2924 17.3329 22.9819 17.0385 22.2871C16.7584 21.5923 17.1749 20.757 17.972 20.4022C18.7835 20.077 19.6596 20.3653 19.9396 21.0601ZM19.2 21.3853C19.0635 21.0601 18.6255 20.9344 18.2305 21.1045C17.814 21.2671 17.5914 21.6736 17.7135 21.9989C17.8284 22.3315 18.288 22.4497 18.6829 22.2871C19.1066 22.1245 19.3436 21.718 19.2 21.3853Z" fill="#5A6B2B"/>
</g>
<mask id="mask2_932_3" style="mask-type:luminance" maskUnits="userSpaceOnUse" x="26" y="12" width="35" height="62">
<path d="M26.3806 12.8574H60.0884V73.4486H26.3806V12.8574Z" fill="white"/>
</mask>
<g mask="url(#mask2_932_3)">
<path d="M39.9823 72.6118C39.1109 72.5769 39.2712 71.8379 39.8499 71.6078C41.4882 70.9314 43.6703 70.3178 46.3893 69.7531C47.9161 69.4463 47.0307 66.978 46.6821 65.9879C44.5766 60.0055 42.8616 53.8836 41.5858 47.6641C41.544 47.5107 41.4324 47.3992 41.2791 47.3992C37.2007 47.0296 35.2137 43.5573 33.422 40.1757C32.7458 38.9206 32.2578 37.7841 31.9301 36.7591C31.6024 35.7133 31.1005 34.772 30.7728 33.7261C29.1345 28.4409 27.8587 23.0721 26.9523 17.6475C26.9314 17.4871 27.0081 17.3546 27.1476 17.2779C30.9262 15.4232 35.1161 14.726 39.2085 13.9381C39.3619 13.9172 39.5222 13.9939 39.578 14.1333C41.795 18.6864 43.3636 23.86 44.9043 29.2707C45.1971 30.2747 45.3296 31.3136 45.5457 32.1085C46.1383 34.4024 46.4102 36.8916 46.3893 39.5551C46.3544 42.4557 45.8873 45.0425 43.5518 46.7996C43.4403 46.8972 43.3775 47.0506 43.4403 47.183C44.5766 50.2719 45.6363 53.4025 46.5845 56.568C47.5675 59.8103 48.5505 64.1541 49.6938 67.9402C49.7287 68.0936 49.889 68.1912 50.0424 68.1912C51.8132 68.0936 53.7443 68.0169 55.8149 67.9611C56.9513 67.9193 57.6833 67.9821 58.0319 68.1145C60.465 69.0628 55.292 70.3945 54.9992 70.4503C49.9239 71.5101 45.2738 72.8628 39.9823 72.6118ZM37.4377 14.7678C34.2656 15.2908 31.219 16.1972 28.263 17.4313C27.5519 17.7381 27.8796 18.1634 28.4931 17.9891C31.6024 17.1245 34.6909 16.1205 37.7235 14.9631C37.7793 14.9421 37.842 14.8864 37.856 14.8236C37.9536 14.5168 37.5492 14.7469 37.4377 14.7678ZM30.7379 29.4241C32.2229 28.7826 37.103 29.8285 38.825 30.1771C40.6586 30.5397 42.6455 30.8325 44.1514 31.7808C44.6533 32.0876 44.8067 31.9481 44.6742 31.3903C43.2032 25.9099 41.4464 20.5202 39.4037 15.228C39.327 15.0607 39.1318 14.9631 38.9575 15.0398C36.3919 16.1205 33.7636 17.0827 31.1005 17.9124C30.6752 18.0519 30.1732 18.1844 29.5807 18.3029C29.1136 18.4005 28.6325 18.5121 28.1515 18.6306C27.9772 18.6655 27.8587 18.8607 27.9005 19.035L30.2918 29.1521C30.3266 29.3474 30.5218 29.445 30.717 29.4031C30.717 29.445 30.717 29.445 30.7379 29.4241ZM43.517 33.3775C46.6402 33.3775 41.2372 31.3554 41.0839 31.3136C37.8978 30.5606 34.6142 30.0376 31.219 29.7099C31.1423 29.7099 31.0796 29.7099 31.0238 29.7518C30.2708 30.198 31.2748 31.216 31.8743 31.4879C35.4089 33.1683 39.6756 33.3775 43.517 33.3775ZM47.5117 65.7997C48.0346 67.243 48.5923 69.0628 47.3165 70.4712C47.2398 70.5689 47.1073 70.6037 46.9888 70.5689C46.2568 70.3945 45.5039 70.3945 44.7718 70.5828C43.496 70.9105 42.2411 71.2801 40.9862 71.6845C40.2542 71.9146 40.2751 72.0749 41.042 72.1098C41.2791 72.1307 41.5091 72.1098 41.7601 72.0331C42.764 71.7821 43.9562 71.9006 44.8695 71.7402C48.7108 71.1267 52.7404 70.2551 56.9931 69.1395C57.1465 69.0977 57.258 69.021 57.3208 68.9233C57.4532 68.6932 57.3975 68.5956 57.1256 68.5956C56.3727 68.5956 51.8132 68.5189 51.4716 68.8118C51.3322 68.9024 51.3112 69.021 51.3531 69.1534C51.4716 69.4672 51.374 69.5788 51.0463 69.523C50.5234 69.4254 50.0773 69.2371 49.6729 68.9233C48.92 68.3098 48.3413 66.476 48.1322 65.4859C46.7797 59.6569 45.1344 54.0789 43.2032 48.7309C42.9383 47.9988 42.8198 47.2597 42.8407 46.5276C42.8407 46.43 42.8756 46.3533 42.9523 46.2766C44.6185 44.7915 45.462 42.9019 45.5457 40.6428C45.6224 38.4604 45.483 36.278 45.1762 34.0956C45.1553 33.9004 44.9601 33.7888 44.7928 33.8028C44.7719 33.8028 44.7509 33.8028 44.7509 33.8237C44.479 33.9004 44.2071 33.9771 43.9213 34.0538C42.2969 34.5 39.1318 33.9562 37.4168 33.7888C35.4647 33.5936 33.6103 33.1474 31.8534 32.4362C31.4142 32.2619 31.2538 32.3943 31.4142 32.8615C32.4321 36.0828 33.7636 39.1158 35.4299 41.9746C37.0891 44.8473 38.6856 45.8931 41.7392 46.7786C41.8368 46.7996 41.9135 46.8763 41.9483 46.9739C42.3178 47.7478 42.6106 48.6124 42.8198 49.5816C43.9771 54.9435 45.5596 60.3541 47.5117 65.7997Z" fill="#5A6B2B"/>
<path d="M37.3112 21.6636C37.027 22.1151 36.4006 22.1903 35.9162 21.8551C35.4319 21.5131 35.2575 20.87 35.5416 20.4117C35.8258 19.9602 36.4522 19.8849 36.9366 20.2202C37.4403 20.5622 37.6018 21.2052 37.3112 21.6636ZM36.7558 21.4515C36.956 21.3421 37.0076 21.0411 36.8656 20.7948C36.7235 20.5485 36.4522 20.4322 36.2585 20.5622C36.0583 20.6785 36.0066 20.9795 36.1487 21.2258C36.2908 21.472 36.562 21.5678 36.7558 21.4515Z" fill="#5A6B2B"/>
<path d="M35.6168 25.5694C35.4155 26.2261 34.662 26.5886 33.9085 26.3424C33.1485 26.0961 32.7003 25.3778 32.8822 24.7143C33.0771 24.0507 33.837 23.6881 34.5905 23.9344C35.344 24.167 35.8117 24.9058 35.6168 25.5694ZM35.0062 25.2615C35.0582 24.94 34.7724 24.6185 34.3762 24.5432C33.9799 24.4885 33.6162 24.6937 33.5642 25.0153C33.5123 25.3368 33.7981 25.6583 34.1943 25.7335C34.61 25.8156 34.9673 25.583 35.0062 25.2615Z" fill="#5A6B2B"/>
</g>
</svg>
