<svg width="65" height="54" viewBox="0 0 65 54" fill="none" xmlns="http://www.w3.org/2000/svg">
<mask id="mask0_932_2" style="mask-type:luminance" maskUnits="userSpaceOnUse" x="17" y="0" width="5" height="5">
<path d="M17.6871 0.00012207H21.2566V4.44859H17.6871V0.00012207Z" fill="white"/>
</mask>
<g mask="url(#mask0_932_2)">
<path d="M19.9179 0.118632C20.0365 0.153494 20.0922 0.362671 20.0853 0.746158C20.0713 1.13662 19.9946 1.58286 19.8622 2.09883C19.7227 2.61479 19.5624 3.04709 19.3811 3.38177C19.1999 3.72342 19.0465 3.88379 18.928 3.84893C18.8095 3.81406 18.7537 3.60489 18.7607 3.2214C18.7746 2.83094 18.8513 2.3847 18.9837 1.86873C19.1232 1.35277 19.2835 0.927443 19.4648 0.58579C19.646 0.244136 19.7994 0.0837695 19.9179 0.118632Z" fill="#5A6B2B"/>
</g>
<mask id="mask1_932_2" style="mask-type:luminance" maskUnits="userSpaceOnUse" x="8" y="0" width="5" height="5">
<path d="M8.76331 0.00012207H12.3328V4.44859H8.76331V0.00012207Z" fill="white"/>
</mask>
<g mask="url(#mask1_932_2)">
<path d="M11.4195 2.2452C11.545 2.7263 11.6147 3.14465 11.6147 3.50025C11.6217 3.86282 11.5659 4.05805 11.4474 4.09292C11.3219 4.12081 11.1755 3.98135 11.0012 3.66759C10.8269 3.35383 10.6736 2.95639 10.5481 2.48226C10.4156 2.00813 10.3529 1.58978 10.3459 1.22721C10.3389 0.864643 10.4017 0.669409 10.5202 0.641521C10.6387 0.606657 10.7851 0.746109 10.9664 1.05987C11.1407 1.37364 11.294 1.77107 11.4195 2.2452Z" fill="#5A6B2B"/>
</g>
<path d="M30.2918 4.07429C30.4387 4.48931 30.6486 4.51042 30.8724 4.1376C31.2851 3.47638 31.8167 2.93475 32.4602 2.51973C33.4045 1.92182 34.6636 1.75299 35.0972 3.06136C35.1182 3.12467 35.1182 3.18798 35.0972 3.24425C34.3768 5.98057 32.6001 7.33115 30.8724 9.17412C30.5017 9.56804 30.11 9.61024 29.6763 9.27963C28.2563 8.23856 25.0807 4.28532 26.9973 2.51973C27.5569 2.02733 28.2563 2.06953 29.1237 2.64634C29.6973 3.06136 30.089 3.51859 30.2918 4.07429ZM30.1309 8.61138C30.2778 8.738 30.4597 8.71689 30.5856 8.56917C32.0895 6.85282 33.5304 5.50928 34.3558 3.30756C34.4187 3.14577 34.3348 2.95585 34.1669 2.89254C34.1459 2.89254 34.125 2.87144 34.083 2.87144C32.663 2.68855 31.425 4.57372 30.8094 5.64996C30.2568 6.62772 29.2636 3.93361 28.9978 3.56079C28.4382 2.77296 27.9696 2.58303 27.5988 3.01916C26.2558 4.55262 29.0188 7.68286 30.1309 8.61138Z" fill="#5A6B2B"/>
<mask id="mask2_932_2" style="mask-type:luminance" maskUnits="userSpaceOnUse" x="0" y="6" width="7" height="4">
<path d="M0 6.23346H6.97861V9.80339H0V6.23346Z" fill="white"/>
</mask>
<g mask="url(#mask2_932_2)">
<path d="M3.54158 7.16099C4.08536 7.39108 4.53155 7.62118 4.88013 7.86521C5.22871 8.10925 5.38209 8.29054 5.33329 8.4021C5.28449 8.52063 5.05442 8.53457 4.63612 8.45788C4.21783 8.37421 3.73678 8.22081 3.193 7.99769C2.64921 7.7676 2.19605 7.53053 1.84747 7.29347C1.49889 7.04943 1.34551 6.86814 1.39431 6.75658C1.44312 6.63805 1.67318 6.62411 2.09845 6.7008C2.51675 6.7775 2.99779 6.9309 3.54158 7.16099Z" fill="#5A6B2B"/>
</g>
<path d="M22.1084 16.4262C22.0456 16.5867 22.1293 16.775 22.2898 16.8517C22.3108 16.8726 22.3526 16.8726 22.3945 16.8726C24.4674 17.0609 26.4635 17.591 28.3759 18.4559C28.4806 18.4977 28.5783 18.4977 28.683 18.435C29.6531 17.8212 30.6163 17.0609 31.5794 16.6076C40.4851 12.3181 50.7588 16.7331 55.114 25.3191C58.6525 32.3217 57.6684 41.647 51.5405 46.9896C45.4126 52.3323 37.3793 52.1021 30.7628 47.7917C30.6372 47.708 30.4906 47.729 30.372 47.8127C26.3798 50.9931 21.8571 52.3881 16.825 51.9766C6.48847 51.1605 0.0743971 41.2773 2.60094 31.401C3.73161 26.9232 6.25815 23.2406 10.1876 20.367C10.3271 20.2624 10.369 20.0601 10.2434 19.9136C10.2085 19.8718 10.1666 19.8299 10.1247 19.816C9.28023 19.4463 8.4776 18.8883 7.73778 18.1909C7.26318 17.7375 7.08172 17.1656 7.20735 16.482C7.53538 14.6337 7.98904 12.8273 8.60323 11.0626C8.6451 10.9789 8.70792 10.8953 8.78469 10.8743C12.0162 9.584 15.3244 8.51686 18.7164 7.71476C18.8211 7.69384 18.9188 7.71476 19.0025 7.79846L23.3367 11.6973C23.4205 11.781 23.4624 11.8857 23.4414 11.9833C23.0925 13.4829 22.6807 14.9825 22.1084 16.4262ZM17.0902 9.3608L19.868 12.2553C19.9517 12.339 20.0494 12.353 20.1541 12.353L21.6338 12.0879C22.1084 12.0042 22.1502 11.8229 21.7803 11.516C21.0196 10.8953 20.2798 10.2396 19.5609 9.54215C19.0654 9.06786 18.6954 8.7819 18.4651 8.6982C18.0184 8.53778 17.5648 8.57963 17.1321 8.8656C16.9855 8.97022 16.9506 9.17249 17.0274 9.31896C17.0692 9.31896 17.0902 9.33988 17.0902 9.3608ZM17.4601 10.9162C17.2996 10.7767 16.8459 10.2605 16.1061 9.39568C16.0223 9.29803 15.8967 9.25618 15.7781 9.29803L14.5636 9.66769C14.3961 9.73047 14.2984 9.89089 14.3403 10.0792C14.3403 10.1001 14.3403 10.1001 14.3543 10.1141C14.787 11.1463 15.115 12.2135 15.3244 13.3225C15.3663 13.5038 15.5268 13.6084 15.7152 13.5875H15.7362L18.5698 12.7645C18.7373 12.7226 18.835 12.5413 18.8001 12.353C18.7792 12.3181 18.7583 12.2763 18.7373 12.2344C18.4093 11.8438 17.9975 11.4114 17.4601 10.9162ZM13.7401 10.0792C13.7191 9.99551 13.6354 9.93273 13.5377 9.95366C13.5377 9.95366 13.5377 9.95366 13.5167 9.95366L11.6044 10.5884C11.5416 10.6093 11.4997 10.6511 11.4997 10.7139L10.6342 15.2336C10.6133 15.3172 10.6761 15.4149 10.7808 15.4149C10.8017 15.4149 10.8436 15.4149 10.8646 15.4149L14.5427 13.9153C14.6265 13.8735 14.6683 13.7968 14.6474 13.734L13.7401 10.0792ZM9.28023 11.3068C9.21741 11.3277 9.17554 11.3695 9.17554 11.4323L8.02394 16.3844C8.003 16.4611 8.06581 16.5448 8.14957 16.5657C8.19144 16.5657 8.21238 16.5657 8.25426 16.5657L9.71295 15.9101C9.75483 15.8892 9.7967 15.8473 9.7967 15.8055L10.8227 11.1254C10.8436 11.0417 10.7808 10.958 10.697 10.9371C10.6761 10.9371 10.6342 10.9371 10.6133 10.9371L9.28023 11.3068ZM20.2798 13.1551C20.217 13.176 20.1541 13.2178 20.1332 13.3015L19.5818 16.6494C19.5609 16.7331 19.6167 16.8308 19.7214 16.8517C19.7424 16.8517 19.7633 16.8517 19.7842 16.8517L20.894 16.6285C20.9568 16.6076 20.9986 16.5657 21.0196 16.5239L22.248 13.1132C22.2898 13.0365 22.227 12.9319 22.1502 12.89C22.1293 12.89 22.0874 12.8691 22.0665 12.89L20.2798 13.1551ZM19.0444 15.6032C19.1282 14.9825 19.2119 14.3896 19.2678 13.8177C19.2887 13.6294 19.17 13.4689 18.9816 13.4689C18.9397 13.4689 18.8978 13.4689 18.856 13.4829L15.9176 14.3478C15.7571 14.3896 15.6524 14.5779 15.6943 14.7593L16.4551 17.1237C16.5179 17.2841 16.6575 17.3678 16.825 17.3469L18.6954 16.9563C18.835 16.9354 18.9397 16.7959 18.9397 16.6494C18.9816 16.2588 19.0025 15.931 19.0444 15.6032ZM11.1088 16.1333C11.046 16.1542 11.0251 16.2379 11.046 16.3007C11.046 16.3216 11.067 16.3425 11.0879 16.3425L13.3283 18.3931C13.3702 18.414 13.412 18.435 13.4539 18.414L15.8199 17.591C15.8758 17.5771 15.9176 17.5143 15.8967 17.4515L15.0801 14.7593C15.0592 14.6965 14.9964 14.6546 14.9335 14.6756L11.1088 16.1333ZM29.7508 19.1743L30.8815 19.9136C30.9862 19.9764 31.1327 19.9764 31.2304 19.9136C41.5321 13.4829 53.6971 21.3155 54.765 32.51C56.1888 47.6453 38.7333 54.2992 29.011 43.021C23.9788 37.1901 23.7067 28.8692 28.2921 22.7105C28.3968 22.564 28.3759 22.3618 28.2293 22.2571C28.2084 22.2571 28.2084 22.2362 28.1874 22.2362L27.0986 21.6015C26.9591 21.5178 26.7706 21.5597 26.6729 21.6992C21.3057 29.5667 22.7644 39.4708 29.6531 45.8388C36.8419 52.4927 47.8205 51.4674 53.4738 43.4534C60.174 33.9678 54.6463 19.3626 43.4863 16.3007C38.4472 14.9267 33.8826 15.7078 29.7718 18.6442C29.6322 18.7419 29.5903 18.9511 29.688 19.0906C29.688 19.1115 29.7089 19.1534 29.7508 19.1743ZM8.6451 17.7375L11.1507 19.4254C11.2554 19.4812 11.374 19.5021 11.4787 19.4463L12.2604 19.0348C12.6094 18.8465 12.6094 18.6651 12.2814 18.4559C11.5625 18.0235 10.9692 17.4725 10.4737 16.7959C10.39 16.6704 10.2434 16.6285 10.1038 16.6704L8.72886 17.1446C8.31707 17.3051 8.27519 17.5143 8.6451 17.7375ZM8.14957 47.5197C14.3194 52.7578 23.239 52.2486 29.5694 47.3174C29.7089 47.2128 29.7299 47.0106 29.6322 46.8641C29.6112 46.8432 29.5903 46.8222 29.5694 46.8013L28.9133 46.2922C28.7877 46.1875 28.6202 46.1875 28.5015 46.2922C23.4624 50.1701 16.6993 51.0978 11.1298 47.8894C4.53424 44.0742 2.47531 35.6905 5.80449 28.932C9.38492 21.7201 18.1162 17.3888 25.9889 20.4297C34.6853 23.7986 37.1909 34.0863 32.5496 41.6888C32.0959 42.4281 31.6004 43.1465 31.0909 43.8649C30.9862 44.0114 31.0071 44.1928 31.1327 44.2974L31.7469 44.8344C31.8935 44.953 32.0959 44.9321 32.2006 44.7926C37.3374 38.7315 38.4053 29.7759 33.2475 23.3661C30.1835 19.5649 25.8912 17.5771 20.9777 17.6747C19.54 17.6956 18.179 17.6119 16.804 17.9816C7.73778 20.4925 1.10037 29.5876 3.15231 39.1849C3.85723 42.5118 5.51833 45.2808 8.14957 47.5197ZM37.1909 30.041C38.2238 35.4046 36.472 41.0541 32.9613 45.225C32.8357 45.3645 32.8567 45.5738 33.0032 45.6714C33.0242 45.6714 33.0242 45.6923 33.0451 45.6923C40.4642 50.4212 50.2633 47.6243 53.3272 39.2058C56.4331 30.6408 51.2125 20.5344 42.0066 18.4768C38.5518 17.7166 35.2436 18.2955 32.054 20.2414C31.9144 20.346 31.8516 20.5344 31.9493 20.6948C31.9703 20.7157 31.9912 20.7366 32.0121 20.7576C34.769 23.3661 36.4929 26.449 37.1909 30.041ZM5.00186 34.4141C4.18527 43.021 11.3182 49.9051 19.868 49.0402C22.8272 48.7542 25.5213 47.6662 27.9013 45.776C28.0478 45.6714 28.0688 45.4691 27.9641 45.3227L27.9431 45.3017C24.8583 41.9748 23.1134 38.1317 22.6597 33.7794C22.4364 31.5196 22.576 29.3853 23.1134 27.3278C23.6718 25.2354 24.5721 23.2615 25.8493 21.4341C25.947 21.2946 25.9121 21.0854 25.7656 20.9808C25.7446 20.9598 25.7237 20.9598 25.7028 20.9459C24.614 20.4925 23.4833 20.2205 22.3108 20.1019C20.6916 19.9345 18.2208 19.9973 16.4969 20.5553C10.2434 22.5849 5.64396 27.8439 5.00186 34.4141ZM29.3041 23.0383C29.1785 22.9128 28.9482 22.9337 28.8505 23.0592C28.8505 23.0592 28.8505 23.0592 28.8295 23.0802C26.8753 25.5632 25.7446 28.8064 25.7446 32.0148C25.7237 36.2625 27.1824 40.0009 30.1207 43.2512C30.2464 43.3697 30.4488 43.3907 30.5744 43.2721C30.5953 43.2512 30.5953 43.2512 30.6163 43.2302C33.1219 40.1683 34.3153 36.7995 34.1897 33.1029C34.0711 29.2389 32.4449 25.8701 29.3041 23.0383Z" fill="#5A6B2B"/>
<mask id="mask3_932_2" style="mask-type:luminance" maskUnits="userSpaceOnUse" x="58" y="36" width="7" height="3">
<path d="M58.736 36.5779H64.0902V38.3629H58.736V36.5779Z" fill="white"/>
</mask>
<g mask="url(#mask3_932_2)">
<path d="M64.3621 37.1566C64.39 37.2752 64.2157 37.4286 63.8323 37.6168C63.4488 37.7981 62.9678 37.9654 62.3961 38.1049C61.8244 38.2443 61.3225 38.321 60.8972 38.335C60.4719 38.3489 60.2488 38.2932 60.214 38.1746C60.1861 38.0561 60.3604 37.9027 60.7438 37.7144C61.1342 37.5331 61.6083 37.3658 62.18 37.2264C62.7516 37.0869 63.2536 37.0102 63.6789 36.9963C64.1041 36.9823 64.3342 37.0311 64.3621 37.1566Z" fill="#5A6B2B"/>
</g>
<path d="M59.6065 46.0187C59.9891 46.3505 60.2829 46.6746 60.5016 46.991C60.7202 47.3073 60.7886 47.5157 60.7134 47.6237C60.6382 47.7317 60.4401 47.7086 60.1189 47.5465C59.791 47.3845 59.4425 47.1376 59.0599 46.8058C58.6772 46.4663 58.3834 46.1422 58.1647 45.8258C57.9461 45.5094 57.8778 45.3011 57.9529 45.1931C58.0281 45.0851 58.2262 45.1082 58.5542 45.2702C58.8754 45.4323 59.2238 45.6792 59.6065 46.0187Z" fill="#5A6B2B"/>
<path d="M53.1725 51.6183C53.3548 52.1145 53.4805 52.5486 53.5371 52.9345C53.5937 53.3135 53.5685 53.5271 53.4617 53.5753C53.3611 53.6235 53.2039 53.4857 53.0028 53.1688C52.7953 52.8587 52.6068 52.4521 52.4182 51.9629C52.2359 51.4667 52.1165 51.0326 52.0599 50.6468C52.0033 50.2678 52.0222 50.0542 52.129 50.0059C52.2359 49.9577 52.3868 50.0955 52.5942 50.4125C52.7953 50.7226 52.9902 51.1291 53.1725 51.6183Z" fill="#5A6B2B"/>
</svg>
